<?xml version="1.0" encoding="UTF-8"?>
<svg width="110px" height="110px" viewBox="0 0 110 110" version="1.1" xmlns="http://www.w3.org/2000/svg" xmlns:xlink="http://www.w3.org/1999/xlink">
    <!-- Generator: Sketch 52.6 (67491) - http://www.bohemiancoding.com/sketch -->
    <title>Advanced Analytics</title>
    <desc>Created with Sketch.</desc>
    <g id="Advanced-Analytics" stroke="none" stroke-width="1" fill="none" fill-rule="evenodd">
        <g id="stadistics" transform="translate(8.000000, 11.000000)" fill="#3D22E1">
            <path d="M20.887027,5.91342137 C20.3895848,4.72920932 18.6782291,4.68187193 18.1368269,5.85677169 C17.8661257,6.44499774 18.005718,7.16049148 18.4792523,7.60204891 C18.9597274,8.04903855 19.6939368,8.12741709 20.2592473,7.7968309 C20.8962818,7.42356356 21.173924,6.5994265 20.887027,5.91342137 Z" id="Path"></path>
            <path d="M30.8870354,5.91253956 C30.3781255,4.70203578 28.6208442,4.68962035 28.1127054,5.91253956 C27.8559373,6.53020707 28.0502483,7.26426888 28.5699531,7.67863374 C29.0526465,8.06351187 29.741988,8.10541382 30.2694039,7.78959644 C30.8993726,7.41247805 31.1723332,6.59461193 30.8870354,5.91253956 Z" id="Path"></path>
            <path d="M25.8863828,5.92670193 C25.6544271,5.37705041 25.1134543,5.00624765 24.514685,5.00008045 C23.853496,4.9931424 23.2578094,5.43563879 23.063614,6.06546409 C22.8840603,6.6490352 23.0944386,7.30352909 23.5706796,7.6812701 C24.0708098,8.07751251 24.7882539,8.1052649 25.3207501,7.75913093 C25.9172075,7.36982638 26.1638048,6.58505047 25.8863828,5.92670193 Z" id="Path"></path>
            <path d="M86.7254824,1.56277433e-14 L18.2745176,1.56277433e-14 C14.8144575,1.56277433e-14 12,2.83159638 12,6.31113069 L12,30.7831393 C12,31.5535053 12.6206897,32.1778168 13.3865865,32.1778168 C14.1524834,32.1778168 14.7738848,31.5535053 14.7738848,30.7831393 L14.7738848,13.5787753 L56.0269693,13.5787753 L56.0269693,31.72963 C56.0269693,32.2615834 56.3280607,32.7477159 56.8035432,32.9818327 C56.9971528,33.0777704 57.2057102,33.1243074 57.4135558,33.1243074 C57.715359,33.1243074 58.0157387,33.0255059 58.2634452,32.8321983 L75.7815564,19.177532 C76.0733945,18.9505748 76.2627334,18.6155085 76.3082886,18.2475085 C76.3545556,17.8795082 76.2520564,17.5086444 76.0249921,17.2158194 C74.9757989,15.864815 73.8013287,14.6505578 72.5264947,13.5787753 L90.2261152,13.5787753 L90.2261152,67.7213313 C90.2261152,69.6622815 88.6558842,71.242391 86.7254824,71.242391 L46.5956185,71.242391 L46.5956185,65.093066 C48.5132078,65.5913696 50.4913002,65.8441012 52.5000001,65.8441012 C65.5010282,65.8441012 76.0783771,55.2057472 76.0783771,42.1295713 C76.0783771,40.625353 75.9374406,39.1189867 75.6591269,37.6541456 C75.5153432,36.8973827 74.7878837,36.4019429 74.0362228,36.5458495 C73.28385,36.6904722 72.7905726,37.4214607 72.9343561,38.1782236 C73.1799273,39.4712358 73.3044922,40.8007615 73.3044922,42.1295713 C73.3044922,48.5946319 70.3740113,54.3845484 65.7786301,58.2256394 L54.4090478,42.4037816 L69.7390857,30.4137073 C70.5405726,31.6036222 71.2174946,32.8722917 71.7584626,34.1996697 C72.048877,34.9127594 72.8589054,35.2535533 73.5678583,34.9614443 C74.2768111,34.6686193 74.615628,33.8538641 74.3252135,33.1407743 C73.5130497,31.1497075 72.4325371,29.2760571 71.1128599,27.5713717 C70.6423601,26.963527 69.7711168,26.8539862 69.1675104,27.3272314 L53.8865864,39.2779283 L53.8865864,19.8104351 C53.8865864,19.0400689 53.2658968,18.4150415 52.5000001,18.4150415 C39.4989718,18.4150415 28.9230465,29.0533955 28.9230465,42.1295713 C28.9230465,49.2325466 32.0136823,55.839366 37.426922,60.3663405 L37.426922,71.242391 L33.9291363,71.242391 L33.9291363,62.4970182 C33.9291363,61.7266522 33.3084467,61.1016248 32.5418381,61.1016248 L26.1477381,61.1016248 C25.3811294,61.1016248 24.7604398,61.7266522 24.7604398,62.4970182 L24.7604398,71.242391 L21.1686966,71.242391 L21.1686966,35.4339736 C21.1686966,34.6628917 20.5480069,34.0385802 19.78211,34.0385802 L13.3872983,34.0385802 C12.6214014,34.0385802 12.0007118,34.6628917 12.0007118,35.4339736 L12.0007118,86.6053225 C12.0007118,87.3756885 12.6214014,88 13.3872983,88 L19.78211,88 C20.5480069,88 21.1686966,87.3756885 21.1686966,86.6053225 L21.1686966,74.032462 L24.7604398,74.032462 L24.7604398,86.6053225 C24.7604398,87.3756885 25.3811294,88 26.1477381,88 L32.5418381,88 C33.3084467,88 33.9291363,87.3756885 33.9291363,86.6053225 L33.9291363,74.032462 L37.426922,74.032462 L37.426922,86.6053225 C37.426922,87.3756885 38.0476116,88 38.8142202,88 L45.2083201,88 C45.9749289,88 46.5956185,87.3756885 46.5956185,86.6053225 L46.5956185,74.032462 L86.7254824,74.032462 C90.1848307,74.032462 93,71.2015816 93,67.7213313 L93,6.31113069 C93,2.83159638 90.1848307,0 86.7254824,0 Z M14.7745967,85.209929 L14.7745967,36.8286512 L18.3948118,36.8286512 L18.3948118,85.209929 L14.7745967,85.209929 Z M27.5343246,85.209929 L27.5343246,63.8924117 L31.1552515,63.8924117 L31.1552515,85.209929 L27.5343246,85.209929 Z M31.6969314,42.1295713 C31.6969314,31.0609293 40.2862228,21.9718988 51.1127016,21.2509335 L51.1127016,42.1295713 C51.1127016,42.42884 51.2109301,42.7116415 51.3789149,42.9450425 L51.3767795,42.9471902 L63.5314774,59.8623091 C60.3319361,61.8834461 56.5494306,63.0540302 52.5000001,63.0540302 C50.4820469,63.0540302 48.5011072,62.7647848 46.5956185,62.1970337 L46.5956185,51.33745 C46.5956185,50.5663681 45.9749289,49.9420566 45.2083201,49.9420566 L38.8142202,49.9420566 C38.0476116,49.9420566 37.426922,50.5663681 37.426922,51.33745 L37.426922,56.5553196 C33.7547454,52.6870226 31.6969314,47.5736822 31.6969314,42.1295713 Z M40.2008068,85.209929 L40.2008068,52.7321276 L43.8217337,52.7321276 L43.8217337,85.209929 L40.2008068,85.209929 Z M58.8008541,28.8837146 L58.8008541,10.9275992 C64.266055,11.285576 69.3020405,13.7534678 72.9457449,17.8587456 L58.8008541,28.8837146 Z M68.3838184,10.7887042 C65.0547295,9.03390194 61.3106612,8.09170724 57.4135558,8.09170724 C56.6476589,8.09170724 56.0269693,8.71673465 56.0269693,9.48710068 L56.0269693,10.7887042 L14.7738848,10.7887042 L14.7738848,6.31113069 C14.7738848,4.36946463 16.3441158,2.79007098 18.2745176,2.79007098 L86.7254824,2.79007098 C88.6558842,2.79007098 90.2261152,4.36946463 90.2261152,6.31113069 L90.2261152,10.7887042 L68.3838184,10.7887042 Z" id="Shape" fill-rule="nonzero"></path>
            <path d="M7.63822688,43 L1.36177312,43 C0.60926947,43 0,43.6323948 0,44.4118414 L0,86.588883 C0,87.3683295 0.60926947,88 1.36177312,88 L7.63822688,88 C8.39003187,88 9,87.3683295 9,86.588883 L9,75.1818708 C9,74.4024244 8.39003187,73.7700294 7.63822688,73.7700294 C6.8864219,73.7700294 6.27645377,74.4024244 6.27645377,75.1818708 L6.27645377,85.1770416 L2.72284757,85.1770416 L2.72284757,45.8229584 L6.27645377,45.8229584 L6.27645377,70.4762157 C6.27645377,71.2556625 6.8864219,71.8880573 7.63822688,71.8880573 C8.39003187,71.8880573 9,71.2556625 9,70.4762157 L9,44.4118414 C9,43.6323948 8.39003187,43 7.63822688,43 Z" id="Path"></path>
            <path d="M86.6511344,65 L72.349558,65 C71.6044967,65 71,65.671883 71,66.5 C71,67.328117 71.6044967,68 72.349558,68 L86.6511344,68 C87.3961957,68 88,67.328117 88,66.5 C88,65.671883 87.3961957,65 86.6511344,65 Z" id="Path"></path>
            <path d="M86.6173082,58 L76.382692,58 C75.6189462,58 75,58.6720554 75,59.5003849 C75,60.3287144 75.6189462,61 76.382692,61 L86.6173082,61 C87.3810538,61 88,60.3287144 88,59.5003849 C88,58.6720554 87.3810538,58 86.6173082,58 Z" id="Path"></path>
        </g>
    </g>
</svg>