<?xml version="1.0" encoding="UTF-8"?>
<svg width="1304px" height="1013px" viewBox="0 0 1304 1013" version="1.1" xmlns="http://www.w3.org/2000/svg" xmlns:xlink="http://www.w3.org/1999/xlink">
    <!-- Generator: Sketch 52.6 (67491) - http://www.bohemiancoding.com/sketch -->
    <title>Group 26</title>
    <desc>Created with Sketch.</desc>
    <g id="Revised" stroke="none" stroke-width="1" fill="none" fill-rule="evenodd">
        <g id="CCS-Home-Page" transform="translate(-616.000000, -4779.000000)">
            <g id="Group-26" transform="translate(563.000000, 4779.000000)">
                <g id="Group-25">
                    <g id="Group-31" transform="translate(0.000000, 164.000000)" opacity="0.119999997" stroke="#979797">
                        <g id="Group-15" transform="translate(727.721265, 487.759834) rotate(10.000000) translate(-727.721265, -487.759834) translate(50.721265, 136.759834)">
                            <path d="M1352.80098,301.519986 L759.414359,700.389781" id="Path-2"></path>
                            <path d="M1298.56156,254.439494 L660.836956,662.998723" id="Path-2-Copy"></path>
                            <path d="M1230.5519,218.960931 L573.773232,636.017848" id="Path-2-Copy-2"></path>
                            <path d="M1150.81417,192.33318 L506.565863,591.123686" id="Path-2-Copy-3"></path>
                            <path d="M1078.52596,166.761992 L418.427791,558.02588" id="Path-2-Copy-4"></path>
                            <path d="M1004.95246,147.658896 L319.75405,541.551395" id="Path-2-Copy-5"></path>
                            <path d="M926.223921,106.097996 L249.834431,494.214856" id="Path-2-Copy-6"></path>
                            <path d="M777.808269,95.1895359 L172.017186,464.735575" id="Path-2-Copy-7"></path>
                            <path d="M716.003541,48.2981307 L86.4160037,433.018195" id="Path-2-Copy-8"></path>
                            <path d="M654.198814,1.40672551 L1.53120415,403.934775" id="Path-2-Copy-9"></path>
                        </g>
                        <g id="Group-17" transform="translate(728.249077, 456.417543) rotate(-5.000000) translate(-728.249077, -456.417543) translate(61.749077, 56.917543)">
                            <path d="M731.297214,798.286465 L0,275.656983" id="Path-3"></path>
                            <path d="M820.581006,751.390464 L89.2837921,228.760981" id="Path-3-Copy"></path>
                            <path d="M933.797786,718.579445 L177.42292,183.008785" id="Path-3-Copy-2"></path>
                            <path d="M1031.58693,695.131912 L265.562048,137.256589" id="Path-3-Copy-3"></path>
                            <path d="M1129.3217,644.840948 L353.701177,91.5043926" id="Path-3-Copy-4"></path>
                            <path d="M1236.18226,613.433598 L441.840305,45.7521963" id="Path-3-Copy-5"></path>
                            <path d="M1331.94779,585.739875 L529.979433,0" id="Path-3-Copy-6"></path>
                        </g>
                    </g>
                    <g id="Group-43" transform="translate(373.000000, 0.000000)">
                        <polygon id="Fill-1" fill="#CFCACA" points="630.707442 790.400289 630.707442 803 685.8803 768.051725 685.8803 755.432656"></polygon>
                        <polygon id="Fill-8" fill="#EBEBEB" points="0 430.636934 629.832453 791.563379 686.527394 755.570821 84.2527983 397.546739"></polygon>
                        <polygon id="Fill-9" fill="#E3E3E3" points="0 442.269056 630.707442 803 630.707442 790.050044 0 430.16614"></polygon>
                        <polygon id="Fill-10" fill="#E3E3E3" points="636.420372 91.5620887 642.385677 94.7787732 649.757019 92.7665121 643.72693 90.1427776"></polygon>
                        <polygon id="Fill-11" fill="#DEDEDE" points="636.430205 91.5638254 637.333372 778.208719 643.72693 782.705305 642.497473 94.846549"></polygon>
                        <polygon id="Fill-12" fill="#CFCACA" points="642.349768 94.7752097 649.727481 92.7388992 650.131403 781.185809 643.275887 785.845068"></polygon>
                        <g id="Group-42" transform="translate(45.711072, 0.000000)">
                            <g id="Group-24" transform="translate(479.626534, 461.406349)">
                                <path d="M36.6303126,24.2174603 L72.947178,24.2174603 L72.947178,252.580143 C72.947178,252.580143 64.257721,268.94127 36.6303126,268.94127 C9.00290422,268.94127 0.313447207,252.580143 0.313447207,252.580143 L0.313447207,24.2174603 L36.6303126,24.2174603 Z" id="Fill-25" fill="#5F91E6"></path>
                                <path d="M72.947178,23.5801587 C72.947178,10.5560259 56.6880802,0 36.6303126,0 C16.572545,0 0.313447207,10.5560259 0.313447207,23.5801587 C0.313447207,36.6042916 16.572545,47.1603175 36.6303126,47.1603175 C56.6880802,47.1603175 72.947178,36.6042916 72.947178,23.5801587" id="Fill-27" fill="#4974BC"></path>
                            </g>
                            <g id="Group-22" transform="translate(372.587352, 337.769841)">
                                <path d="M39.1788646,26.7666667 L78.044282,26.7666667 L78.044282,323.911359 C78.044282,323.911359 68.7450385,341.593651 39.1788646,341.593651 C9.61269068,341.593651 0.313447207,323.911359 0.313447207,323.911359 L0.313447207,26.7666667 L39.1788646,26.7666667 Z" id="Fill-29" fill="#5533E8"></path>
                                <path d="M78.044282,25.4920635 C78.044282,11.4162165 60.6441948,0 39.1788646,0 C17.7135344,0 0.313447207,11.4162165 0.313447207,25.4920635 C0.313447207,39.5722071 17.7135344,50.984127 39.1788646,50.984127 C60.6441948,50.984127 78.044282,39.5722071 78.044282,25.4920635" id="Fill-31" fill="#4125BA"></path>
                            </g>
                            <g id="Group-21" transform="translate(251.032368, 225.604762)">
                                <path d="M38.4054022,24.2174603 L75.9944958,24.2174603 L75.9944958,366.591189 C75.9944958,366.591189 67.0006355,383.655556 38.4054022,383.655556 C9.81016884,383.655556 0.812213007,366.591189 0.812213007,366.591189 L0.812213007,24.2174603 L38.4054022,24.2174603 Z" id="Fill-33" fill="#6A64B8"></path>
                                <path d="M75.9944958,24.8547619 C75.9944958,11.1266219 59.1658201,0 38.4054022,0 C17.6408887,0 0.812213007,11.1266219 0.812213007,24.8547619 C0.812213007,38.5829019 17.6408887,49.7095238 38.4054022,49.7095238 C59.1658201,49.7095238 75.9944958,38.5829019 75.9944958,24.8547619" id="Fill-35" fill="#514B99"></path>
                            </g>
                            <g id="Group-20" transform="translate(134.574488, 107.066667)">
                                <path d="M35.3560366,24.2174603 L70.3986261,24.2174603 L70.3986261,411.050261 C70.3986261,411.050261 62.0140623,426.992063 35.3560366,426.992063 C8.69801099,426.992063 0.313447207,411.050261 0.313447207,411.050261 L0.313447207,24.2174603 L35.3560366,24.2174603 Z" id="Fill-37" fill="#5F91E6"></path>
                                <path d="M70.3986261,22.9428571 C70.3986261,10.2707279 54.7100229,0 35.3560366,0 C15.9982323,0 0.313447207,10.2707279 0.313447207,22.9428571 C0.313447207,35.6149864 15.9982323,45.8857143 35.3560366,45.8857143 C54.7100229,45.8857143 70.3986261,35.6149864 70.3986261,22.9428571" id="Fill-39" fill="#507CC9"></path>
                            </g>
                            <g id="Group-20-Copy" transform="translate(0.775510, 0.000000)">
                                <path d="M39.6776304,25.4920635 L78.5430478,25.4920635 L78.5430478,452.72196 C78.5430478,452.72196 69.2438043,470.328571 39.6776304,470.328571 C10.1114565,470.328571 0.812213007,452.72196 0.812213007,452.72196 L0.812213007,25.4920635 L39.6776304,25.4920635 Z" id="Fill-37" fill="#3363C1"></path>
                                <path d="M78.5430478,25.4920635 C78.5430478,11.4119199 61.1429606,0 39.6776304,0 C18.2080655,0 0.812213007,11.4119199 0.812213007,25.4920635 C0.812213007,39.5722071 18.2080655,50.984127 39.6776304,50.984127 C61.1429606,50.984127 78.5430478,39.5722071 78.5430478,25.4920635" id="Fill-39" fill="#234EA1"></path>
                            </g>
                            <g id="Group-14" transform="translate(581.568612, 679.484488)">
                                <polyline id="Fill-2" fill="#DEDEDE" points="0 0.988350003 5.98486518 0 10.2832735 2.58618251 10.2832735 8.00563502"></polyline>
                                <polygon id="Fill-3" fill="#DADADA" points="10.1222487 7.87747562 0 0.98813973 0 10.2815796 10.2832735 18.2985943"></polygon>
                            </g>
                            <g id="Group-14" transform="translate(581.568612, 609.721097)">
                                <polyline id="Fill-2" fill="#DEDEDE" points="0 0.988350003 5.98486518 0 10.2832735 2.58618251 10.2832735 8.00563502"></polyline>
                                <polygon id="Fill-3" fill="#DADADA" points="10.1222487 7.87747562 0 0.98813973 0 10.2815796 10.2832735 18.2985943"></polygon>
                            </g>
                            <g id="Group-14-Copy" transform="translate(581.568612, 535.383058)">
                                <polyline id="Fill-2" fill="#DEDEDE" points="0 0.988350003 5.98486518 0 10.2832735 2.58618251 10.2832735 8.00563502"></polyline>
                                <polygon id="Fill-3" fill="#DADADA" points="10.1222487 7.87747562 0 0.98813973 0 10.2815796 10.2832735 18.2985943"></polygon>
                            </g>
                            <g id="Group-14-Copy-2" transform="translate(581.568612, 461.045018)">
                                <polyline id="Fill-2" fill="#DEDEDE" points="0 0.988350003 5.98486518 0 10.2832735 2.58618251 10.2832735 8.00563502"></polyline>
                                <polygon id="Fill-3" fill="#DADADA" points="10.1222487 7.87747562 0 0.98813973 0 10.2815796 10.2832735 18.2985943"></polygon>
                            </g>
                            <g id="Group-14-Copy-3" transform="translate(581.568612, 386.706979)">
                                <polyline id="Fill-2" fill="#DEDEDE" points="0 0.988350003 5.98486518 0 10.2832735 2.58618251 10.2832735 8.00563502"></polyline>
                                <polygon id="Fill-3" fill="#DADADA" points="10.1222487 7.87747562 0 0.98813973 0 10.2815796 10.2832735 18.2985943"></polygon>
                            </g>
                            <g id="Group-14-Copy-4" transform="translate(581.568612, 312.368939)">
                                <polyline id="Fill-2" fill="#DEDEDE" points="0 0.988350003 5.98486518 0 10.2832735 2.58618251 10.2832735 8.00563502"></polyline>
                                <polygon id="Fill-3" fill="#DADADA" points="10.1222487 7.87747562 0 0.98813973 0 10.2815796 10.2832735 18.2985943"></polygon>
                            </g>
                            <g id="Group-14-Copy-5" transform="translate(581.568612, 238.030900)">
                                <polyline id="Fill-2" fill="#DEDEDE" points="0 0.988350003 5.98486518 0 10.2832735 2.58618251 10.2832735 8.00563502"></polyline>
                                <polygon id="Fill-3" fill="#DADADA" points="10.1222487 7.87747562 0 0.98813973 0 10.2815796 10.2832735 18.2985943"></polygon>
                            </g>
                            <g id="Group-14-Copy-6" transform="translate(581.568612, 163.692860)">
                                <polyline id="Fill-2" fill="#DEDEDE" points="0 0.988350003 5.98486518 0 10.2832735 2.58618251 10.2832735 8.00563502"></polyline>
                                <polygon id="Fill-3" fill="#DADADA" points="10.1222487 7.87747562 0 0.98813973 0 10.2815796 10.2832735 18.2985943"></polygon>
                            </g>
                            <g id="Group-14-Copy-7" transform="translate(581.568612, 107.653415)">
                                <polyline id="Fill-2" fill="#DEDEDE" points="0 0.988350003 5.98486518 0 10.2832735 2.58618251 10.2832735 8.00563502"></polyline>
                                <polygon id="Fill-3" fill="#DADADA" points="9.15052061 7.22136297 0 0.98813973 0 10.2815796 9.27048738 17.273333"></polygon>
                            </g>
                        </g>
                        <text id="90" font-family="CantataOne-Regular, Cantata One" font-size="26" font-weight="normal" fill="#180D5B">
                            <tspan x="658.129505" y="129.432612">90</tspan>
                        </text>
                        <text id="80" font-family="CantataOne-Regular, Cantata One" font-size="26" font-weight="normal" fill="#180D5B">
                            <tspan x="658.27981" y="201.483327">80</tspan>
                        </text>
                        <text id="70" opacity="0.900000036" font-family="CantataOne-Regular, Cantata One" font-size="26" font-weight="normal" letter-spacing="-0.04120214" fill="#180D5B">
                            <tspan x="658.27981" y="274.677705">70</tspan>
                        </text>
                        <text id="60" opacity="0.800000012" font-family="CantataOne-Regular, Cantata One" font-size="26" font-weight="normal" fill="#180D5B">
                            <tspan x="658.27981" y="346.72842">60</tspan>
                        </text>
                        <text id="50" opacity="0.699999988" font-family="CantataOne-Regular, Cantata One" font-size="26" font-weight="normal" fill="#180D5B">
                            <tspan x="658.418385" y="418.779135">50</tspan>
                        </text>
                        <text id="40" opacity="0.600000024" font-family="CantataOne-Regular, Cantata One" font-size="26" font-weight="normal" fill="#180D5B">
                            <tspan x="658.27981" y="490.82985">40</tspan>
                        </text>
                        <text id="30" opacity="0.5" font-family="CantataOne-Regular, Cantata One" font-size="26" font-weight="normal" fill="#180D5B">
                            <tspan x="658.27981" y="564.024228">30</tspan>
                        </text>
                        <text id="20" opacity="0.400000006" font-family="CantataOne-Regular, Cantata One" font-size="26" font-weight="normal" letter-spacing="-0.002060108" fill="#180D5B">
                            <tspan x="658.27981" y="636.074943">20</tspan>
                        </text>
                        <text id="10" opacity="0.229999989" font-family="CantataOne-Regular, Cantata One" font-size="26" font-weight="normal" fill="#180D5B">
                            <tspan x="658.129505" y="708.125658">10</tspan>
                        </text>
                    </g>
                </g>
            </g>
        </g>
    </g>
</svg>