<?xml version="1.0" encoding="UTF-8"?>
<svg width="110px" height="110px" viewBox="0 0 110 110" version="1.1" xmlns="http://www.w3.org/2000/svg" xmlns:xlink="http://www.w3.org/1999/xlink">
    <!-- Generator: Sketch 52.6 (67491) - http://www.bohemiancoding.com/sketch -->
    <title>Artboard</title>
    <desc>Created with Sketch.</desc>
    <g id="Artboard" stroke="none" stroke-width="1" fill="none" fill-rule="evenodd">
        <g id="employee" transform="translate(23.000000, 8.000000)" fill="#3D22E1" fill-rule="nonzero">
            <path d="M61.6305022,76.162582 C60.8743759,76.162582 60.2613696,76.7790898 60.2613696,77.5395352 L60.2613696,90.4854648 C60.2613696,90.9046094 59.9221898,91.2457266 59.5054258,91.2457266 L52.1455163,91.2457266 L52.1455163,64.1294805 C52.1455163,63.3690352 51.53251,62.7525273 50.7763837,62.7525273 C50.0202574,62.7525273 49.407251,63.3690352 49.407251,64.1294805 L49.407251,91.2459102 L34.5868465,91.2459102 L38.8846451,86.490832 C39.3541664,85.9712617 39.5756008,85.2311953 39.4768407,84.5104063 C39.4750151,84.4964531 39.4728245,84.4825 39.4704514,84.4685469 L35.3771098,60.1484336 L36.4799006,58.478832 C37.089621,58.9143164 37.5593247,59.3336445 38.4401334,59.3336445 C39.3360938,59.3336445 40.1738204,58.8293125 40.5860206,57.9991016 L40.5860206,57.998918 L44.9033523,49.2965742 L54.738471,53.1272578 C55.094263,53.2807422 60.2610045,55.6208281 60.2610045,61.7998594 L60.2610045,71.1135703 C60.2608219,71.873832 60.8738283,72.4905234 61.6301371,72.4905234 C62.3862635,72.4905234 62.9992698,71.8740156 62.9992698,71.1135703 L62.9992698,61.7998594 C62.9992698,53.6585781 56.0679901,50.6992305 55.7729877,50.5771406 C55.7644078,50.5734688 55.7556453,50.5699805 55.7468829,50.5666758 L39.377898,44.1911992 L39.377898,40.3302227 C41.9777896,38.2967383 43.7804809,35.2823125 44.2330249,31.8432344 C45.5293197,31.7514375 46.7321484,31.2645469 47.7144554,30.4150586 C48.9972415,29.3056016 49.7332872,27.6908945 49.7332872,25.9856758 C49.7332872,24.5705352 49.2256128,23.2192852 48.3208899,22.166375 L48.3208899,17.0655898 C48.3207074,7.65567578 40.7086949,0 31.3522249,0 C21.995755,0 14.3837425,7.65567578 14.3837425,17.0655898 L14.3837425,22.3000312 C13.4693445,23.342293 12.9720755,24.6252461 12.9720755,25.9854922 C12.9720755,27.6912617 13.7077561,29.3057852 14.9909072,30.4154258 C15.9724841,31.2645469 17.1745825,31.7508867 18.4705122,31.8428672 C18.9267072,35.3463867 20.7819732,38.4731719 23.6032992,40.5340117 L23.6032992,44.1911992 L7.25202182,50.5664922 C7.24344193,50.5697969 7.23486203,50.5732852 7.22628213,50.5767734 C6.93109713,50.6988633 0,53.6582109 0,61.7994922 L0,90.4850977 C0,92.4229297 1.56756561,93.9994492 3.49439163,93.9994492 L16.5389399,93.9994492 C17.2950662,93.9994492 17.9080725,93.3829414 17.9080725,92.6224961 C17.9080725,91.8620508 17.2950662,91.245543 16.5389399,91.245543 L13.5931141,91.245543 L13.5931141,64.1294805 C13.5931141,63.3690352 12.9801077,62.7525273 12.2239814,62.7525273 C11.4678551,62.7525273 10.8548488,63.3690352 10.8548488,64.1294805 L10.8548488,91.2459102 L3.49457418,91.2459102 C3.0778102,91.2459102 2.7386304,90.904793 2.7386304,90.4856484 L2.7386304,61.7996758 C2.7386304,55.5998984 7.94005662,53.2651367 8.2595209,53.1278086 L18.0869725,49.296207 L22.4046692,57.998918 C22.8177822,58.8311484 23.6566041,59.3336445 24.550739,59.3336445 C25.4271665,59.3336445 25.8923065,58.9207422 26.5109719,58.478832 L27.6137626,60.1484336 L23.5207862,84.4687305 C23.518413,84.4825 23.516405,84.4962695 23.5143969,84.5102227 C23.4154542,85.2306445 23.6368886,85.9710781 24.1065924,86.4910156 L28.4043911,91.2460937 L22.9287732,91.2460937 C22.1726469,91.2460937 21.5596406,91.8626016 21.5596406,92.6230469 C21.5596406,93.3834922 22.1726469,94 22.9287732,94 L59.5056084,94 C61.4324344,94 63,92.4232969 63,90.4856484 L63,77.5397187 C62.9996349,76.7790898 62.3866286,76.162582 61.6305022,76.162582 Z M42.338693,48.2978242 L38.3136256,56.410832 C38.2135876,56.3394141 36.0804789,54.8152188 33.4729201,52.9530273 C34.6043714,51.5483516 33.2806939,53.1915156 38.4446972,46.7811563 L42.338693,48.2978242 Z M34.2458412,56.8834023 L33.2020144,58.4635938 L29.7877627,58.4635938 L28.743936,56.8834023 L31.4949798,54.9183984 L34.2458412,56.8834023 Z M26.341382,44.6354961 L26.341382,42.0585742 C28.0047869,42.7329141 29.7824687,43.0455742 31.5185289,43.0455742 C33.3135531,43.0455742 35.0738926,42.6607617 36.6394501,41.9722852 L36.6394501,44.6466953 L31.4949798,51.0330039 L26.341382,44.6354961 Z M46.9948393,25.9856758 C46.9946568,26.8876719 46.6061882,27.7411992 45.9289239,28.3270469 C45.4811263,28.7144297 44.9402276,28.9620977 44.3478495,29.0590352 L44.3478495,22.9128672 C45.9214393,23.1698984 46.9948393,24.4825938 46.9948393,25.9856758 Z M18.3573306,29.0590352 C16.7658508,28.79925 15.7103408,27.4759063 15.7103408,25.9854922 C15.7103408,24.5134375 16.9237574,23.3153047 18.3573306,22.982082 L18.3573306,29.0590352 Z M18.4308986,20.1762188 C17.9947843,20.2265234 17.4949596,20.3453086 17.1223729,20.4727227 L17.1223729,17.0655898 C17.1223729,9.17417969 23.505817,2.75408984 31.3524075,2.75408984 C39.198998,2.75408984 45.5824421,9.17417969 45.5824421,17.0655898 L45.5824421,20.3781719 C45.1844808,20.2564492 44.771733,20.1760352 44.3480321,20.1382148 C44.3480321,18.8095469 44.3595328,19.0658438 40.0376374,14.392832 C39.2428102,13.5339805 37.9280778,13.3540586 36.9275157,14.0115078 C32.1574575,17.1452695 26.3386437,18.7195859 20.9698182,18.3318359 C19.7921816,18.2431602 18.7195118,19.02325 18.4308986,20.1762188 Z M21.0957784,30.1431563 L21.0957784,21.5524375 L21.0957784,21.0998789 C27.0058677,21.4479727 33.202197,19.682168 38.2079285,16.4580781 C40.1900675,18.5984141 41.2634675,19.7210898 41.6095842,20.1481289 C41.6095842,21.2283945 41.6095842,28.9064688 41.6095842,30.1429727 C41.6095842,35.7328516 37.0775726,40.2913008 31.5187115,40.2913008 C25.2765619,40.2914844 21.0957784,35.4214766 21.0957784,30.1431563 Z M24.6765167,56.410832 L20.6514493,48.2978242 L24.5385081,46.7837266 L29.5113805,52.9570664 C26.9825012,54.7630781 24.9059833,56.2468828 24.6765167,56.410832 Z M26.2473682,84.7656016 L30.2103683,61.2173164 L32.7790437,61.2173164 L36.7420438,84.7656016 L31.4947973,90.5713867 L26.2473682,84.7656016 Z" id="Shape"></path>
        </g>
    </g>
</svg>