<?xml version="1.0" encoding="UTF-8"?>
<svg width="110px" height="110px" viewBox="0 0 110 110" version="1.1" xmlns="http://www.w3.org/2000/svg" xmlns:xlink="http://www.w3.org/1999/xlink">
    <!-- Generator: Sketch 52.6 (67491) - http://www.bohemiancoding.com/sketch -->
    <title>Customer Insights</title>
    <desc>Created with Sketch.</desc>
    <g id="Customer-Insights" stroke="none" stroke-width="1" fill="none" fill-rule="evenodd">
        <g id="feedback" transform="translate(10.000000, 10.000000)" fill="#3D22E1">
            <path d="M84.1346503,8.98502496 L54.0865609,8.98502496 L54.0865609,5.99001664 C54.0865609,2.69550749 51.3822329,0 48.076943,0 L6.00961788,0 C2.70432805,0 0,2.69550749 0,5.99001664 L0,38.9351082 C0,55.4076539 15.7752469,55.4076539 21.0336626,55.4076539 C21.9351053,55.4076539 22.536067,54.8086522 22.536067,53.9101498 C22.536067,53.0116473 21.9351053,52.4126456 21.0336626,52.4126456 C17.7283727,52.4126456 15.0240447,49.7171381 15.0240447,46.422629 C15.0240447,46.2728785 15.0240447,45.9733777 15.0240447,45.8236273 C15.474766,42.6788686 18.1790941,40.4326123 21.3341435,40.4326123 L42.0673252,40.4326123 L42.0673252,43.4276206 L28.5456849,43.4276206 C27.6442422,43.4276206 27.0432805,44.0266223 27.0432805,44.9251248 C27.0432805,48.3693844 28.3954445,51.6638935 30.6490512,54.0599002 C30.1983298,55.5574043 30.0480894,56.9051581 30.0480894,58.4026622 C30.0480894,64.3926789 33.6538601,69.7836938 39.0625162,72.1797005 C39.0625162,73.078203 38.6117949,74.875208 34.5553028,74.875208 C30.3485703,74.875208 27.0432805,78.1697171 27.0432805,82.3627288 L27.0432805,89.8502496 L30.0480894,89.8502496 L30.0480894,82.3627288 C30.0480894,79.9667221 31.8509748,78.0199667 34.2548219,77.8702163 L41.6166038,81.4642263 C42.2175656,81.7637271 42.9687678,82.063228 43.5697296,82.2129784 L43.5697296,89.8502496 L46.5745386,89.8502496 L46.5745386,82.2129784 C47.3257408,82.063228 47.9267026,81.9134775 48.5276644,81.6139767 L55.8894463,78.0199667 C58.2932934,78.1697171 60.0961788,80.1164725 60.0961788,82.5124792 L60.0961788,90 L63.1009877,90 L63.1009877,82.5124792 C63.1009877,78.3194676 59.7956979,75.0249584 55.5889654,75.0249584 C51.5324733,75.0249584 51.081752,73.2279534 51.081752,72.3294509 C56.790889,69.9334443 60.2464192,64.2429285 60.0961788,58.1031614 C60.0961788,57.8036606 60.0961788,57.2046589 60.0961788,57.0549085 C60.0961788,54.9584027 59.6454574,52.8618968 58.5937743,51.0648918 L68.6598843,51.0648918 C71.8149336,51.0648918 74.5192617,53.3111481 74.969983,56.4559068 C75.2704639,59.750416 72.8666168,62.7454243 69.5613269,63.0449251 C69.4110865,63.0449251 69.1106056,63.0449251 68.9603652,63.0449251 C68.0589225,63.0449251 67.4579607,63.6439268 67.4579607,64.5424293 C67.4579607,65.4409318 68.0589225,66.0399334 68.9603652,66.0399334 C74.2187808,66.0399334 89.9940277,66.0399334 89.9940277,49.5673877 L89.9940277,14.9750416 C90.1442682,11.6805324 87.4399401,8.98502496 84.1346503,8.98502496 Z M21.3341435,37.437604 C16.6766896,37.437604 12.6201975,40.8818636 12.0192358,45.5241265 C11.8689953,47.7703827 12.4699571,50.0166389 13.8221211,51.8136439 C6.46033922,50.3161398 3.00480894,46.2728785 3.00480894,38.9351082 L3.00480894,5.99001664 C3.00480894,4.34276206 4.35697296,2.99500832 6.00961788,2.99500832 L48.076943,2.99500832 C49.7295879,2.99500832 51.081752,4.34276206 51.081752,5.99001664 L51.081752,34.4425957 C51.081752,36.0898502 49.7295879,37.437604 48.076943,37.437604 L21.3341435,37.437604 Z M30.1983298,46.422629 L46.5745386,46.422629 C51.8329542,46.422629 56.1899272,50.3161398 56.9411294,55.4076539 L40.5649207,55.4076539 C35.306505,55.4076539 30.9495321,51.5141431 30.1983298,46.422629 Z M49.1286262,69.6339434 C48.5276644,69.7836938 48.076943,70.3826955 48.076943,70.9816972 L48.076943,71.8801997 C47.9267026,73.9767055 49.1286262,76.0732113 51.081752,76.9717138 L47.1755003,78.9184692 C45.8233363,79.5174709 44.1706914,79.5174709 42.8185274,78.9184692 L39.0625162,76.9717138 C41.015642,76.0732113 42.2175656,73.9767055 42.0673252,71.8801997 L42.0673252,71.1314476 C42.0673252,70.5324459 41.6166038,69.9334443 41.015642,69.7836938 C36.2079477,67.9866889 33.0528983,63.4941764 33.0528983,58.4026622 C33.0528983,57.6539101 33.0528983,56.9051581 33.2031388,56.3061564 C35.306505,57.6539101 37.8605926,58.4026622 40.5649207,58.4026622 L57.0913698,58.4026622 C57.0913698,63.4941764 53.9363205,67.9866889 49.1286262,69.6339434 Z M87.1394592,49.4176373 C87.1394592,56.7554077 83.683929,60.7986689 76.3221471,62.296173 C77.6743111,60.4991681 78.2752729,58.2529118 78.1250324,56.0066556 C77.5240706,51.3643927 73.617819,47.9201331 68.8101247,47.9201331 L56.6406485,47.9201331 C54.0865609,45.0748752 50.4807902,43.4276206 46.5745386,43.4276206 L45.0721341,43.4276206 L45.0721341,40.4326123 L48.076943,40.4326123 C51.3822329,40.4326123 54.0865609,37.7371048 54.0865609,34.4425957 L54.0865609,11.9800333 L84.1346503,11.9800333 C85.7872952,11.9800333 87.1394592,13.327787 87.1394592,14.9750416 L87.1394592,49.4176373 Z" id="Shape" fill-rule="nonzero"></path>
            <path d="M33.5,16.3157895 L32,16.3157895 C31.1,16.3157895 30.5,15.7263158 30.5,14.8421053 L30.5,10.4210526 C30.5,7.91578947 28.55,6 26,6 C23.45,6 21.5,7.91578947 21.5,10.4210526 L21.5,14.8421053 C21.5,15.7263158 20.9,16.3157895 20,16.3157895 C20,15.4315789 19.4,14.8421053 18.5,14.8421053 L12.5,14.8421053 C11.6,14.8421053 11,15.4315789 11,16.3157895 L11,32.5263158 C11,33.4105263 11.6,34 12.5,34 L18.5,34 C19.4,34 20,33.4105263 20,32.5263158 L33.5,32.5263158 C36.05,32.5263158 38,30.6105263 38,28.1052632 L38,20.7368421 C38,18.2315789 36.05,16.3157895 33.5,16.3157895 Z M17,31.0526316 L14,31.0526316 L14,17.7894737 L17,17.7894737 L17,31.0526316 Z M35,28.1052632 C35,28.9894737 34.4,29.5789474 33.5,29.5789474 L20,29.5789474 L20,19.2631579 C22.55,19.2631579 24.5,17.3473684 24.5,14.8421053 L24.5,10.4210526 C24.5,9.53684211 25.1,8.94736842 26,8.94736842 C26.9,8.94736842 27.5,9.53684211 27.5,10.4210526 L27.5,14.8421053 C27.5,17.3473684 29.45,19.2631579 32,19.2631579 L33.5,19.2631579 C34.4,19.2631579 35,19.8526316 35,20.7368421 L35,28.1052632 Z" id="Shape" fill-rule="nonzero"></path>
            <path d="M82.5,16 L76.5,16 C75.6,16 75,16.5894737 75,17.4736842 L61.5,17.4736842 C58.95,17.4736842 57,19.3894737 57,21.8947368 L57,29.2631579 C57,31.7684211 58.95,33.6842105 61.5,33.6842105 L63,33.6842105 C63.9,33.6842105 64.5,34.2736842 64.5,35.1578947 L64.5,39.5789474 C64.5,42.0842105 66.45,44 69,44 C71.55,44 73.5,42.0842105 73.5,39.5789474 L73.5,35.1578947 C73.5,34.2736842 74.1,33.6842105 75,33.6842105 C75,34.5684211 75.6,35.1578947 76.5,35.1578947 L82.5,35.1578947 C83.4,35.1578947 84,34.5684211 84,33.6842105 L84,17.4736842 C84,16.5894737 83.4,16 82.5,16 Z M75,30.7368421 C72.45,30.7368421 70.5,32.6526316 70.5,35.1578947 L70.5,39.5789474 C70.5,40.4631579 69.9,41.0526316 69,41.0526316 C68.1,41.0526316 67.5,40.4631579 67.5,39.5789474 L67.5,35.1578947 C67.5,32.6526316 65.55,30.7368421 63,30.7368421 L61.5,30.7368421 C60.6,30.7368421 60,30.1473684 60,29.2631579 L60,21.8947368 C60,21.0105263 60.6,20.4210526 61.5,20.4210526 L75,20.4210526 L75,30.7368421 Z M81,32.2105263 L78,32.2105263 L78,18.9473684 L81,18.9473684 L81,32.2105263 Z" id="Shape" fill-rule="nonzero"></path>
            <rect id="Rectangle" x="56" y="39" width="6" height="2"></rect>
            <polygon id="Path" points="40.5 8.5 40.5 7 37.5 7 37.5 8.5 36 8.5 36 11.5 37.5 11.5 37.5 13 40.5 13 40.5 11.5 42 11.5 42 8.5"></polygon>
        </g>
    </g>
</svg>