<?xml version="1.0" encoding="UTF-8"?>
<svg width="110px" height="110px" viewBox="0 0 110 110" version="1.1" xmlns="http://www.w3.org/2000/svg" xmlns:xlink="http://www.w3.org/1999/xlink">
    <!-- Generator: Sketch 52.6 (67491) - http://www.bohemiancoding.com/sketch -->
    <title>Expert Consultance</title>
    <desc>Created with Sketch.</desc>
    <g id="Expert-Consultance" stroke="none" stroke-width="1" fill="none" fill-rule="evenodd">
        <g id="handshake" transform="translate(8.000000, 24.000000)" fill="#3D22E1" fill-rule="nonzero">
            <path d="M93,15.744381 C92.9978203,14.339317 92.5825899,12.9143692 91.6643966,11.7397769 L84.2956002,2.35677657 C83.0613522,0.797160965 81.1833699,0.0030729561 79.3066591,0 C78.189751,0 77.0524991,0.284881107 76.0476632,0.908510433 L68.8626872,5.35706629 C68.1070622,5.83662821 66.8116014,6.16579603 65.5602792,6.15730021 C64.5881386,6.16145774 63.6486934,5.96786151 63.0283907,5.66291581 L55.9923599,2.27127608 C54.8574693,1.72754361 53.5923425,1.50466392 52.3201316,1.50249477 C50.4930087,1.51099059 48.6426358,1.95783456 47.1557257,2.98329809 L46.3347101,3.55649478 C45.6784426,3.23058067 44.6756048,2.73402712 43.5396244,2.17149539 C42.1773198,1.50683306 40.5754312,1.23876283 38.9573767,1.23352073 C37.4957146,1.23767826 36.0344159,1.46182329 34.7513066,2.00121747 L29.9589007,4.03623746 C29.1789359,4.37281653 27.9383305,4.59262327 26.7060806,4.58720041 C25.4738307,4.59244251 24.235405,4.37263577 23.4554402,4.03623746 L18.6586749,2.0001329 C17.783712,1.62884749 16.8484445,1.47013835 15.9215325,1.46905378 C14.8542122,1.47013835 13.7932494,1.67946089 12.8071225,2.0769568 C11.8222671,2.47662185 10.9080699,3.06662943 10.1800544,3.87626298 L1.44677368,13.6095803 C0.478810857,14.6852957 -0.00199184517,16.039927 6.20157372e-06,17.3734092 C-0.00199184517,18.9635736 0.681703422,20.5587994 2.00041427,21.6768131 L10.1469958,28.593495 L6.28241008,32.6055103 C5.21708788,33.7119553 4.6866973,35.1464835 4.6866973,36.5649239 C4.68469925,38.0741068 5.28701952,39.5979315 6.48003507,40.719922 L7.26399595,41.4612275 C8.00272832,42.1586078 8.890406,42.602198 9.81931609,42.8388157 C9.35340792,43.6916513 9.09874778,44.6267338 9.10074583,45.5636239 C9.09874778,47.0738914 9.70106805,48.5966316 10.8919039,49.7198874 L10.8899059,49.7188028 L11.6762281,50.463362 C12.7954975,51.5191936 14.2464428,52.0450306 15.6759544,52.0441268 C16.4442942,52.0452114 17.2135422,51.8915636 17.9364718,51.5907754 C18.1902237,52.6151543 18.7142569,53.5889199 19.538542,54.3671008 L20.3248642,55.11166 C21.4441337,56.1674916 22.8927176,56.6933286 24.3245905,56.6924248 C25.44386,56.6935094 26.5682154,56.3652454 27.5361782,55.7280589 C27.8193559,56.6345809 28.304518,57.4937433 29.0430687,58.1920274 L29.8293909,58.9365866 C30.9462991,59.9924181 32.3972443,60.5182551 33.8271192,60.5173513 C35.3498124,60.5184359 36.8875819,59.9231862 38.0233806,58.7431711 L41.4389507,55.193726 L46.0793234,59.4676657 C47.1900558,60.4929484 48.615753,61.0030592 50.0231044,60.9999862 C51.5692293,61.0032399 53.1289773,60.3868411 54.2671373,59.1742888 L55.0078678,58.384539 C55.6472427,57.7010774 56.0646529,56.8921669 56.3067798,56.0478271 L58.1042953,57.6989083 C59.2170257,58.7200335 60.6407248,59.2279751 62.0460782,59.2268905 C63.5942012,59.2279751 65.1583085,58.6115763 66.2975584,57.3981201 L67.0341111,56.6092742 C67.8847341,55.7049213 68.3635388,54.5847384 68.5113942,53.440695 C68.9858395,53.5616248 69.4666422,53.6436908 69.9516226,53.6436908 C71.4997456,53.6436908 73.0594935,53.0283766 74.1998333,51.816005 L74.9385657,51.0271591 C75.9710109,49.9259562 76.4846906,48.5136618 76.4825109,47.1212511 C76.4825109,46.6890489 76.4202081,46.2590158 76.3239386,45.834044 C77.6079561,45.6646699 78.8529209,45.094727 79.7996317,44.0830013 L80.5403622,43.2932516 C81.5728074,42.1920488 82.0843074,40.7797543 82.0843074,39.3862591 C82.0863054,37.8530348 81.4650945,36.3058917 80.239202,35.1786591 L78.8538291,33.90519 L91.3576056,20.1473848 C92.4801446,18.9088027 92.998002,17.3144808 93,15.744381 Z M11.2642672,39.9113731 C10.6018239,39.9093847 9.95391179,39.6736709 9.4476794,39.1962781 L8.66244703,38.4549726 C8.11915996,37.9437773 7.85087677,37.2635695 7.84869708,36.5651046 C7.85087677,35.9100227 8.08646465,35.2704863 8.57162672,34.7667023 L16.4867981,26.5469062 C17.0024758,26.0114888 17.6905304,25.7434186 18.3963858,25.7425148 C19.0568311,25.7435993 19.7025635,25.980217 20.2129736,26.4586943 L20.9949364,27.2010843 C20.9949364,27.2010843 21.8045087,28.3924875 21.8065067,29.0918562 C21.8045087,29.615524 21.6459364,30.1256347 21.3384188,30.5674174 C21.312081,30.5936279 12.7954975,39.426569 12.7954975,39.426569 C12.3432124,39.7450719 11.8084624,39.9090232 11.2642672,39.9113731 Z M17.5857238,48.1102007 C17.0711359,48.643449 16.3841711,48.9104346 15.6783157,48.9126038 C15.0158724,48.9115192 14.3699584,48.6749016 13.8617279,48.1975088 L13.0754057,47.4538534 L13.0734077,47.4527689 C12.53448,46.9437427 12.2638355,46.2613657 12.2638355,45.5629009 C12.2638355,44.9078189 12.501603,44.2682825 12.9844038,43.7644985 C12.9844038,43.7644985 23.5351804,32.8347167 23.6240027,32.7293324 C24.128237,32.2466975 24.7779655,31.9974265 25.4489459,31.996342 C26.1113892,31.9974265 26.7573032,32.2329596 27.2655337,32.7114369 L28.0518559,33.4559961 C28.5927816,33.9650222 28.8614281,34.6464955 28.8634262,35.3458641 C28.8612465,36.000946 28.6236605,36.6413862 28.1404965,37.1451703 L17.5857238,48.1102007 Z M26.2330884,52.7572334 C25.7195904,53.291747 25.0328073,53.5590941 24.3267702,53.5610825 C23.6643269,53.559998 23.0184129,53.3233803 22.5101824,52.844903 L21.7216805,52.1012476 C21.1807548,51.5911369 20.9101103,50.9098445 20.9101103,50.2113796 C20.9101103,49.6267949 21.109915,49.0597441 21.4922684,48.5875935 L28.8399945,40.9556358 C29.3356917,40.5107803 29.9569026,40.2763318 30.600637,40.2763318 C31.2630803,40.2774164 31.9089943,40.5129494 32.4172247,40.9914267 L33.2057266,41.7359859 C33.7446543,42.2450121 34.0152989,42.9264853 34.0172969,43.6247694 C34.0151172,44.2811166 33.7753516,44.9215568 33.2943673,45.4240755 L26.2330884,52.7572334 Z M40.1943492,51.9517573 L35.7357987,56.5825214 C35.2221191,57.1166735 34.5342461,57.3840207 33.8283907,57.3860091 C33.1659473,57.3849245 32.5200333,57.1483069 32.0118029,56.6698295 L31.2254807,55.9261742 C30.686553,55.417148 30.4159085,54.734771 30.4139104,54.0363062 C30.4159085,53.3799589 30.653676,52.7395187 31.1368401,52.2379038 L35.5933925,47.6073205 C36.1090702,47.0731684 36.7971248,46.8049174 37.5029803,46.8038328 C38.1634255,46.8049174 38.8113376,47.0404504 39.319568,47.5200124 L40.1080699,48.2636677 C40.6469976,48.7726939 40.9154625,49.4541671 40.9176421,50.1524512 C40.9150992,50.8086177 40.6773316,51.4490579 40.1943492,51.9517573 Z M78.9270302,39.3904166 C78.926122,40.0335683 78.6945303,40.6635243 78.2253525,41.1640546 L77.4866202,41.9529005 C76.9709425,42.5018751 76.2712628,42.7795257 75.5548723,42.7806102 C74.9049621,42.7795257 74.2686751,42.5523077 73.7637142,42.087749 L61.3149748,30.6308649 L59.1623519,32.9245555 L72.4871439,45.2089686 C73.042056,45.7201639 73.3208744,46.4142905 73.3250521,47.1230587 C73.3208744,47.768741 73.0914623,48.3976125 72.6233744,48.8983236 L71.8868217,49.6871695 C71.371144,50.236144 70.6714644,50.5127101 69.9550738,50.5148792 C69.3051637,50.5128908 68.6668786,50.2845883 68.1659138,49.8229218 L55.7139048,38.3662184 L53.5634616,40.659909 L64.6141132,50.8295861 C65.1466835,51.3375276 65.4195077,52.0137588 65.4195077,52.7077045 C65.4195077,53.3513985 65.1900956,53.9811737 64.7220077,54.4808002 L63.9832754,55.2696461 C63.4695957,55.8186207 62.767918,56.0962713 62.0495294,56.0982597 C61.3974396,56.0962713 60.7613342,55.8679688 60.2583713,55.4063023 L49.2298799,45.2735007 L49.2278818,45.2735007 L49.2258838,45.2715123 L47.0796183,47.5693604 L47.081798,47.5713488 L47.1230304,47.6102127 L52.6467214,52.6834824 C53.1360613,53.1840127 53.3896315,53.8255375 53.3916296,54.4891153 C53.3896315,55.1295555 53.1622175,55.7562578 52.6941296,56.256065 L51.9553973,57.0458147 C51.4397196,57.5947893 50.7422196,57.8702708 50.0278271,57.8724399 C49.377917,57.8704516 48.7416299,57.6432336 48.238667,57.1795787 L43.4293685,52.7478337 C43.8478685,51.9307889 44.0814583,51.0441507 44.0814583,50.1544396 C44.0834564,48.6452566 43.4811361,47.123601 42.2903003,45.9994414 L41.5017984,45.2548822 C40.3848902,44.1999544 38.9359431,43.6732136 37.5062498,43.675202 C37.3952674,43.675202 37.2833768,43.7005087 37.174574,43.7068354 C37.174574,43.6806249 37.1807498,43.653149 37.1807498,43.6269385 C37.1827479,42.1177555 35.3895917,39.4697712 35.3895917,39.4697712 L34.6032695,38.7273812 C33.7673594,37.9385352 32.7474474,37.4465007 31.6866662,37.248747 C31.9053615,36.6325289 32.0290588,35.9910041 32.0290588,35.3483948 C32.0290588,33.8392118 31.4287365,32.3162909 30.2379007,31.1933966 L29.4515785,30.4488374 C28.332309,29.3930059 26.8837251,28.8660843 25.4538502,28.8671688 C25.2869225,28.8671688 25.1221744,28.9007906 24.9561549,28.9156131 C24.9107448,27.4664431 24.3242272,26.0183578 23.1829793,24.9393887 L23.1829793,24.9383041 L22.3988367,24.1969986 C21.2795673,23.1400825 19.8309834,22.6131609 18.4011085,22.6142455 C16.8760539,22.6131609 15.3406458,23.2084106 14.2048471,24.3884257 L12.3364917,26.3287263 L4.05985554,19.3035872 C3.46498253,18.7967302 3.16800013,18.0962769 3.16582044,17.3770245 C3.16781849,16.7743635 3.37398059,16.184356 3.81355087,15.6944906 L12.5466499,5.96135407 C12.8932202,5.57434236 13.40581,5.22420613 14.0061322,4.98108108 C14.6064544,4.73813678 15.28797,4.60473433 15.9251653,4.60563814 C16.4800774,4.60563814 17.000841,4.7055996 17.4173429,4.88437334 L22.2119285,6.92029714 C23.5635163,7.48716716 25.1327096,7.71962725 26.7097134,7.72468859 C28.2885336,7.71944648 29.8557288,7.48698639 31.2074983,6.92029714 L35.9999042,4.88527715 C36.7386366,4.56460514 37.853365,4.36576681 38.9619177,4.36992434 C40.1878102,4.36251309 41.4157007,4.61503778 42.1279135,4.97674278 C42.5801987,5.20070706 43.0092338,5.41328331 43.4075717,5.61194089 L38.5199861,9.03105645 C36.9495213,10.1300902 36.1030761,11.8778791 36.1052557,13.6415752 C36.1032577,14.808937 36.475076,15.9972672 37.2317908,17.0057391 L37.2297928,17.0035699 L37.8753435,17.8668898 C39.101236,19.4886876 41.0128218,20.3225433 42.9234994,20.3267008 C44.0024447,20.3267008 45.101552,20.0553768 46.0811398,19.4706114 L49.0041006,17.7237262 C49.6002451,17.3609366 50.500456,17.1317303 51.4313641,17.1358878 C52.5252039,17.1295611 53.6273991,17.4514985 54.2900241,17.9361217 L62.3764825,23.7055064 C64.1761777,24.988556 67.1074939,27.3684701 68.7319059,28.8660843 L78.0916651,37.4781341 C78.6458506,37.9895102 78.9248505,38.6805638 78.9270302,39.3904166 Z M89.0108089,18.0537978 L76.5419073,31.7747276 L70.8807144,26.5669708 C69.1075387,24.9379426 66.1834881,22.5623667 64.2221328,21.1603757 L56.137854,15.390991 C54.767194,14.4246367 53.0890163,14.0068954 51.429911,14.0007495 C50.0180185,14.004907 48.5955909,14.3111181 47.3677003,15.0386856 L44.4469193,16.7855708 C43.9988119,17.053641 43.470601,17.1904779 42.9218647,17.1915625 C41.9410054,17.1948162 40.9594195,16.7392957 40.4121363,15.9978095 L39.7685836,15.1355741 L39.7664039,15.133405 C39.4240114,14.6739077 39.2645309,14.1585548 39.2621696,13.6368754 C39.2663473,12.8480295 39.6319899,12.0825019 40.3402066,11.5850445 L48.9824854,5.54216671 C49.7297548,5.0038571 51.0591825,4.62624503 52.321948,4.63564466 C53.1990905,4.63148713 54.0369987,4.80700715 54.6108014,5.08899606 L61.6466505,8.48063579 C62.8462051,9.05383248 64.1999726,9.28828095 65.5619139,9.29153467 C67.3118396,9.28303885 69.0808375,8.90452297 70.5383218,8.01372722 L77.7254776,3.56426755 C78.1841201,3.27938644 78.7346728,3.13206531 79.3086572,3.13206531 C80.2787997,3.13007693 81.2509402,3.56752127 81.8014929,4.28153166 L89.1702893,13.664532 C89.5951467,14.2019378 89.8412697,14.9600541 89.8412697,15.7458271 C89.8425412,16.6245117 89.5306643,17.489097 89.0108089,18.0537978 Z" id="Shape"></path>
        </g>
    </g>
</svg>