<?xml version="1.0" encoding="UTF-8"?>
<svg width="110px" height="110px" viewBox="0 0 110 110" version="1.1" xmlns="http://www.w3.org/2000/svg" xmlns:xlink="http://www.w3.org/1999/xlink">
    <!-- Generator: Sketch 52.6 (67491) - http://www.bohemiancoding.com/sketch -->
    <title>Financial Services</title>
    <desc>Created with Sketch.</desc>
    <g id="Financial-Services" stroke="none" stroke-width="1" fill="none" fill-rule="evenodd">
        <g id="diagram" transform="translate(13.000000, 12.000000)" fill="#3D22E1">
            <rect id="Rectangle" x="0" y="83" width="84" height="2"></rect>
            <path d="M81.8515395,11.9751285 L76.2308252,0.775332364 C75.884273,0.0833949556 75.0406389,-0.19764993 74.3461294,0.147618787 C74.3457781,0.147793784 74.3454268,0.14796878 74.3450755,0.148143777 L63.1036469,5.74804187 C62.4091374,6.09366058 62.1272235,6.93487027 62.4741269,7.62680768 C62.8210304,8.31874509 63.6653671,8.59961498 64.3598766,8.25399627 L72.5014812,4.20107002 L70.2798939,10.520555 C60.5151323,38.2274508 35.364368,57.6653971 6,60.200051 L6.23888036,63 C36.7096508,60.3701479 62.806803,40.19704 72.9342762,11.4445382 L75.2022345,4.9878557 L79.3362698,13.2267058 C79.6831733,13.9186432 80.52751,14.1995131 81.2220195,13.8538944 C81.9167046,13.5082756 82.1984429,12.667241 81.8515395,11.9751285 Z" id="Path"></path>
            <path d="M16.6666667,68 L7.33333333,68 C6.597,68 6,68.6156563 6,69.375 L6,77.625 C6,78.3843437 6.597,79 7.33333333,79 L16.6666667,79 C17.403,79 18,78.3843437 18,77.625 L18,69.375 C18,68.6156563 17.403,68 16.6666667,68 Z M15.3333333,76.25 L8.66666667,76.25 L8.66666667,70.75 L15.3333333,70.75 L15.3333333,76.25 Z" id="Shape" fill-rule="nonzero"></path>
            <path d="M31.6666667,63 L22.3333333,63 C21.597,63 21,63.6512727 21,64.4545455 L21,77.5454545 C21,78.3487273 21.597,79 22.3333333,79 L31.6666667,79 C32.403,79 33,78.3487273 33,77.5454545 L33,64.4545455 C33,63.6512727 32.403,63 31.6666667,63 Z M30.3333333,76.0909091 L23.6666667,76.0909091 L23.6666667,65.9090909 L30.3333333,65.9090909 L30.3333333,76.0909091 Z" id="Shape" fill-rule="nonzero"></path>
            <path d="M47.6666667,56 L38.3333333,56 C37.597,56 37,56.6436406 37,57.4375 L37,77.5625 C37,78.3563594 37.597,79 38.3333333,79 L47.6666667,79 C48.403,79 49,78.3563594 49,77.5625 L49,57.4375 C49,56.6436406 48.403,56 47.6666667,56 Z M46.3333333,76.125 L39.6666667,76.125 L39.6666667,58.875 L46.3333333,58.875 L46.3333333,76.125 Z" id="Shape" fill-rule="nonzero"></path>
            <path d="M61.6666667,46 L52.3333333,46 C51.597,46 51,46.6424239 51,47.4347826 L51,77.5652174 C51,78.3575761 51.597,79 52.3333333,79 L61.6666667,79 C62.403,79 63,78.3575761 63,77.5652174 L63,47.4347826 C63,46.6424239 62.403,46 61.6666667,46 Z M60.3333333,76.1304348 L53.6666667,76.1304348 L53.6666667,48.8695652 L60.3333333,48.8695652 L60.3333333,76.1304348 Z" id="Shape" fill-rule="nonzero"></path>
            <path d="M77.6666667,27 L68.3333333,27 C67.597,27 67,27.6292703 67,28.4054054 L67,77.5945946 C67,78.3707297 67.597,79 68.3333333,79 L77.6666667,79 C78.403,79 79,78.3707297 79,77.5945946 L79,28.4054054 C79,27.6292703 78.403,27 77.6666667,27 Z M76.3333333,76.1891892 L69.6666667,76.1891892 L69.6666667,29.8108108 L76.3333333,29.8108108 L76.3333333,76.1891892 Z" id="Shape" fill-rule="nonzero"></path>
        </g>
    </g>
</svg>