<?xml version="1.0" encoding="UTF-8"?>
<svg width="110px" height="110px" viewBox="0 0 110 110" version="1.1" xmlns="http://www.w3.org/2000/svg" xmlns:xlink="http://www.w3.org/1999/xlink">
    <!-- Generator: Sketch 52.6 (67491) - http://www.bohemiancoding.com/sketch -->
    <title>Financial Planning</title>
    <desc>Created with Sketch.</desc>
    <g id="Financial-Planning" stroke="none" stroke-width="1" fill="none" fill-rule="evenodd">
        <g id="collaboration" transform="translate(9.000000, 9.000000)" fill="#3D22E1">
            <path d="M46,0 C40.9189167,0 36.8,4.11891667 36.8,9.2 C36.8,14.2810833 40.9189167,18.4 46,18.4 C51.078975,18.3950167 55.1950167,14.278975 55.2,9.2 C55.2,4.11891667 51.0810833,0 46,0 Z M46,15.3333333 C42.612675,15.3333333 39.8666667,12.587325 39.8666667,9.2 C39.8666667,5.812675 42.612675,3.06666667 46,3.06666667 C49.387325,3.06666667 52.1333333,5.812675 52.1333333,9.2 C52.1333333,12.587325 49.387325,15.3333333 46,15.3333333 Z" id="Shape" fill-rule="nonzero"></path>
            <path d="M52.1333333,19.55 L51.7714667,19.55 L51.4479333,19.713875 C48.0169083,21.4527058 43.9830917,21.4527058 40.5520667,19.713875 L40.2285333,19.55 L39.8666667,19.55 C35.6346667,19.5550723 32.2049833,23.046 32.2,27.3535714 L32.2,36.7178571 C32.2,39.3037656 34.2594583,41.4 36.8,41.4 L55.2,41.4 C57.7405417,41.4 59.8,39.3037656 59.8,36.7178571 L59.8,27.3535714 C59.7950167,23.046 56.3653333,19.5550723 52.1333333,19.55 Z M56.7333333,36.7178571 C56.7333333,37.5797616 56.0467833,38.2785714 55.2,38.2785714 L36.8,38.2785714 C35.9532167,38.2785714 35.2666667,37.5797616 35.2666667,36.7178571 L35.2666667,27.3535714 C35.26705,24.8970071 37.1325417,22.8583241 39.5400667,22.6839143 C43.6369417,24.6192 48.36325,24.6192 52.4599333,22.6839143 C54.8672667,22.8583241 56.73295,24.8970071 56.7333333,27.3535714 L56.7333333,36.7178571 Z" id="Shape" fill-rule="nonzero"></path>
            <path d="M78.2,50.6 C73.1189167,50.6 69,54.7189167 69,59.8 C69,64.8810833 73.1189167,69 78.2,69 C83.2810833,69 87.4,64.8810833 87.4,59.8 C87.3950167,54.721025 83.278975,50.6049833 78.2,50.6 Z M78.2,65.9333333 C74.812675,65.9333333 72.0666667,63.187325 72.0666667,59.8 C72.0666667,56.412675 74.812675,53.6666667 78.2,53.6666667 C81.587325,53.6666667 84.3333333,56.412675 84.3333333,59.8 C84.3333333,63.187325 81.587325,65.9333333 78.2,65.9333333 Z" id="Shape" fill-rule="nonzero"></path>
            <path d="M84.3333333,70.15 L83.9714667,70.15 L83.6479333,70.3060714 C80.2169083,72.0447071 76.1830917,72.0447071 72.7520667,70.3060714 L72.4285333,70.15 L72.0666667,70.15 C67.8346667,70.1550723 64.4049833,73.646 64.4,77.9535714 L64.4,87.3178571 C64.4,89.9037656 66.4594583,92 69,92 L87.4,92 C89.9405417,92 92,89.9037656 92,87.3178571 L92,77.9535714 C91.9950167,73.646 88.5653333,70.1550723 84.3333333,70.15 Z M88.9333333,87.3178571 C88.9333333,88.1797616 88.2467833,88.8785714 87.4,88.8785714 L69,88.8785714 C68.1532167,88.8785714 67.4666667,88.1797616 67.4666667,87.3178571 L67.4666667,77.9535714 C67.46705,75.4970071 69.3325417,73.4583241 71.7400667,73.2839143 C75.8369417,75.2192 80.5630583,75.2192 84.6599333,73.2839143 C87.0674583,73.4583241 88.93295,75.4970071 88.9333333,77.9535714 L88.9333333,87.3178571 Z" id="Shape" fill-rule="nonzero"></path>
            <path d="M13.8,50.6 C8.71891667,50.6 4.6,54.7189167 4.6,59.8 C4.6,64.8810833 8.71891667,69 13.8,69 C18.8810833,69 23,64.8810833 23,59.8 C22.9950167,54.721025 18.878975,50.6049833 13.8,50.6 Z M13.8,65.9333333 C10.412675,65.9333333 7.66666667,63.187325 7.66666667,59.8 C7.66666667,56.412675 10.412675,53.6666667 13.8,53.6666667 C17.187325,53.6666667 19.9333333,56.412675 19.9333333,59.8 C19.9333333,63.187325 17.187325,65.9333333 13.8,65.9333333 Z" id="Shape" fill-rule="nonzero"></path>
            <path d="M19.9333333,70.15 L19.5714667,70.15 L19.2479333,70.3060714 C15.8169083,72.0447071 11.7830917,72.0447071 8.35206667,70.3060714 L8.02853333,70.15 L7.66666667,70.15 C3.43466667,70.1550723 0.00498333333,73.646 0,77.9535714 L0,87.3178571 C0,89.9037656 2.05945833,92 4.6,92 L23,92 C25.5405417,92 27.6,89.9037656 27.6,87.3178571 L27.6,77.9535714 C27.5950167,73.646 24.1653333,70.1550723 19.9333333,70.15 Z M24.5333333,87.3178571 C24.5333333,88.1797616 23.8467833,88.8785714 23,88.8785714 L4.6,88.8785714 C3.75321667,88.8785714 3.06666667,88.1797616 3.06666667,87.3178571 L3.06666667,77.9535714 C3.06705,75.4970071 4.93254167,73.4583241 7.34006667,73.2839143 C11.4369417,75.2192 16.1630583,75.2192 20.2599333,73.2839143 C22.6674583,73.4583241 24.53295,75.4970071 24.5333333,77.9535714 L24.5333333,87.3178571 Z" id="Shape" fill-rule="nonzero"></path>
            <path d="M61.976992,78.5380823 C61.9762158,78.5364197 61.9754396,78.5347571 61.9746633,78.5329097 C61.6385645,77.7819709 60.7267121,77.4326412 59.938083,77.7525984 C59.938083,77.7525984 59.938083,77.7525984 59.938083,77.7525984 C52.9279388,80.549453 45.1425551,81.0596849 37.7959239,79.2038593 L39.2489885,78.7974471 C40.072159,78.568009 40.5440945,77.7470564 40.3030814,76.9634199 C40.0620682,76.1797834 39.1996992,75.7305132 38.3765288,75.9599514 L32.1668508,77.6934839 C32.1435645,77.6934839 32.1264879,77.7186076 32.104754,77.7259969 C31.9609612,77.7769831 31.8259007,77.84829 31.7042298,77.9373312 C31.6502832,77.9650411 31.5984712,77.9960762 31.5489879,78.0304365 C31.3852076,78.1695403 31.2553865,78.3409724 31.1686451,78.5329097 C31.0844263,78.7261403 31.0442575,78.9341494 31.0506612,79.1432669 C31.0885014,79.3433325 31.1403134,79.5408119 31.2059032,79.7344119 C31.2152177,79.7551019 31.2059032,79.7787477 31.2229798,79.7994378 L34.3278187,85.4552171 C34.72485,86.1791849 35.6630936,86.4597941 36.4235851,86.0818308 C37.1840766,85.7038675 37.4788422,84.8106844 37.0818109,84.0867166 L35.8181415,81.7871627 C44.1651129,84.1757578 53.1266485,83.7115242 61.1520751,80.4748209 C61.9414804,80.1568958 62.3109562,79.28976 61.976992,78.5380823 Z" id="Path"></path>
            <path d="M86.9554164,39.9074194 C86.3645632,39.3068578 85.4067909,39.3068578 84.8159377,39.9074194 L82.6749459,42.0842868 C81.4221253,28.6096312 73.008141,16.9164685 60.7566369,11.6235269 C59.987809,11.2904585 59.0990704,11.654103 58.7714911,12.4358138 C58.4439118,13.2175246 58.8015634,14.1211554 59.5703912,14.4542238 C70.5609419,19.2035255 78.2008026,29.582491 79.5837471,41.6427597 L77.877006,39.9074194 C77.2759395,39.3170499 76.3181672,39.3339725 75.7375272,39.9451108 C75.1712614,40.5412494 75.1712614,41.4864175 75.7375272,42.0827484 L80.2767325,46.6980151 C80.8668292,47.2995382 81.8249797,47.3008843 82.4165895,46.7007073 C82.4175351,46.6997458 82.4184808,46.6987843 82.4192373,46.6980151 L86.9584426,42.0827484 C87.5483501,41.4812253 87.5470262,40.5074041 86.9554164,39.9074194 Z" id="Path"></path>
            <path d="M33.3062281,13.2135435 C33.3013227,13.1248706 33.2883043,13.0369573 33.2669844,12.9507528 C33.2669844,12.9370816 33.2503813,12.9279675 33.2443438,12.9127773 C33.2383063,12.8975871 33.2443438,12.8869539 33.2443438,12.8748017 C33.2032133,12.8009393 33.155668,12.7306846 33.1024626,12.6651768 C33.0535966,12.5761242 32.995863,12.4921982 32.9303939,12.4145383 C32.8411521,12.3349795 32.7422881,12.2671932 32.6360658,12.2125084 C32.5830491,12.1671277 32.5264475,12.1259242 32.4670159,12.0894677 L26.4295177,9.31421564 C25.658416,8.99560091 24.7765639,9.366432 24.4599726,10.142462 C24.1605505,10.8763392 24.4728023,11.7186366 25.1767369,12.0757965 L28.3026515,13.5143097 C16.5346243,19.8526163 9.19151712,32.1982726 9.20000735,45.6309786 C9.20000735,46.4698582 9.8758298,47.15 10.7093819,47.15 C11.542934,47.15 12.2187564,46.4698582 12.2187564,45.6309786 C12.2112096,33.8029288 18.4262479,22.8547722 28.5547171,16.8546377 L27.4634393,19.149879 C27.1036421,19.9050225 27.4189127,20.810739 28.1683172,21.1747345 C28.3718941,21.2748001 28.5952815,21.3268265 28.8218764,21.3266367 C29.4014762,21.3258771 29.9293799,20.9911228 30.1803135,20.4653515 L33.1990625,14.1264754 C33.1990625,14.1112851 33.1990625,14.0945759 33.2111375,14.0793857 C33.2503813,13.9755226 33.2777387,13.8674822 33.2926438,13.7573532 C33.3184918,13.6755159 33.3377363,13.5917798 33.35,13.5067146 C33.3449059,13.4077884 33.3303781,13.3096216 33.3062281,13.2135435 Z" id="Path"></path>
        </g>
    </g>
</svg>