<?xml version="1.0" encoding="UTF-8"?>
<svg width="920px" height="951px" viewBox="0 0 920 951" version="1.1" xmlns="http://www.w3.org/2000/svg" xmlns:xlink="http://www.w3.org/1999/xlink">
    <!-- Generator: Sketch 52.6 (67491) - http://www.bohemiancoding.com/sketch -->
    <title>Group 4</title>
    <desc>Created with Sketch.</desc>
    <defs>
        <filter x="-15.5%" y="-15.5%" width="131.0%" height="131.0%" filterUnits="objectBoundingBox" id="filter-1">
            <feOffset dx="0" dy="30" in="SourceAlpha" result="shadowOffsetOuter1"></feOffset>
            <feGaussianBlur stdDeviation="19" in="shadowOffsetOuter1" result="shadowBlurOuter1"></feGaussianBlur>
            <feColorMatrix values="0 0 0 0 0   0 0 0 0 0   0 0 0 0 0  0 0 0 0.0905797101 0" type="matrix" in="shadowBlurOuter1" result="shadowMatrixOuter1"></feColorMatrix>
            <feMerge>
                <feMergeNode in="shadowMatrixOuter1"></feMergeNode>
                <feMergeNode in="SourceGraphic"></feMergeNode>
            </feMerge>
        </filter>
        <polygon id="path-2" points="0.0222513661 0.180855221 84.9533194 0.180855221 84.9533194 258.322351 0.0222513661 258.322351"></polygon>
        <polygon id="path-4" points="0 0.46836084 326.961874 0.46836084 326.961874 652.350196 0 652.350196"></polygon>
        <filter x="-85.1%" y="-85.1%" width="270.1%" height="270.1%" filterUnits="objectBoundingBox" id="filter-6">
            <feOffset dx="0" dy="30" in="SourceAlpha" result="shadowOffsetOuter1"></feOffset>
            <feGaussianBlur stdDeviation="19" in="shadowOffsetOuter1" result="shadowBlurOuter1"></feGaussianBlur>
            <feColorMatrix values="0 0 0 0 0   0 0 0 0 0   0 0 0 0 0  0 0 0 0.2830899 0" type="matrix" in="shadowBlurOuter1" result="shadowMatrixOuter1"></feColorMatrix>
            <feMerge>
                <feMergeNode in="shadowMatrixOuter1"></feMergeNode>
                <feMergeNode in="SourceGraphic"></feMergeNode>
            </feMerge>
        </filter>
        <path d="M0.041425,75.6656 C0.041425,117.2547 34.20055,150.9683 76.3388,150.9683 C118.475125,150.9683 152.63425,117.2547 152.63425,75.6656 C152.63425,34.0746 118.475125,0.361 76.3388,0.361 C34.20055,0.361 0.041425,34.0746 0.041425,75.6656" id="path-7"></path>
        <path d="M76.88,0.24 C34.4884568,0.24 0,34.7284568 0,77.12 C0,119.511543 34.4884568,154 76.88,154 C119.271543,154 153.76,119.511543 153.76,77.12 C153.76,34.7284568 119.271543,0.24 76.88,0.24 Z M2.07432099,77.12 C2.07432099,35.8708642 35.6308642,2.31432099 76.88,2.31432099 C118.129136,2.31432099 151.685679,35.8708642 151.685679,77.12 C151.685679,118.367222 118.129136,151.925679 76.88,151.925679 C35.6308642,151.925679 2.07432099,118.367222 2.07432099,77.12 Z" id="path-9"></path>
        <linearGradient x1="14.6607712%" y1="14.6616064%" x2="85.3391092%" y2="85.3381499%" id="linearGradient-11">
            <stop stop-color="#FFFFFF" offset="0%"></stop>
            <stop stop-color="#B8BCBF" offset="100%"></stop>
        </linearGradient>
        <filter x="-122.4%" y="-122.4%" width="344.9%" height="344.9%" filterUnits="objectBoundingBox" id="filter-12">
            <feOffset dx="0" dy="30" in="SourceAlpha" result="shadowOffsetOuter1"></feOffset>
            <feGaussianBlur stdDeviation="19" in="shadowOffsetOuter1" result="shadowBlurOuter1"></feGaussianBlur>
            <feColorMatrix values="0 0 0 0 0   0 0 0 0 0   0 0 0 0 0  0 0 0 0.2830899 0" type="matrix" in="shadowBlurOuter1" result="shadowMatrixOuter1"></feColorMatrix>
            <feMerge>
                <feMergeNode in="shadowMatrixOuter1"></feMergeNode>
                <feMergeNode in="SourceGraphic"></feMergeNode>
            </feMerge>
        </filter>
        <path d="M0.716825,52.269 C0.716825,80.9983125 24.22895,104.287312 53.2332,104.287312 C82.236125,104.287312 105.74825,80.9983125 105.74825,52.269 C105.74825,23.538375 82.236125,0.249375 53.2332,0.249375 C24.22895,0.249375 0.716825,23.538375 0.716825,52.269" id="path-13"></path>
        <path d="M53.072,0.856 C23.8081605,0.856 0,24.6641605 0,53.928 C0,83.1918395 23.8081605,107 53.072,107 C82.3358395,107 106.144,83.1918395 106.144,53.928 C106.144,24.6641605 82.3358395,0.856 53.072,0.856 Z M1.43195062,53.928 C1.43195062,25.4527901 24.5967901,2.28795062 53.072,2.28795062 C81.5472099,2.28795062 104.712049,25.4527901 104.712049,53.928 C104.712049,82.4018889 81.5472099,105.568049 53.072,105.568049 C24.5967901,105.568049 1.43195062,82.4018889 1.43195062,53.928 Z" id="path-15"></path>
        <filter x="-97.8%" y="-97.8%" width="295.5%" height="295.5%" filterUnits="objectBoundingBox" id="filter-17">
            <feOffset dx="0" dy="30" in="SourceAlpha" result="shadowOffsetOuter1"></feOffset>
            <feGaussianBlur stdDeviation="19" in="shadowOffsetOuter1" result="shadowBlurOuter1"></feGaussianBlur>
            <feColorMatrix values="0 0 0 0 0   0 0 0 0 0   0 0 0 0 0  0 0 0 0.2830899 0" type="matrix" in="shadowBlurOuter1" result="shadowMatrixOuter1"></feColorMatrix>
            <feMerge>
                <feMergeNode in="shadowMatrixOuter1"></feMergeNode>
                <feMergeNode in="SourceGraphic"></feMergeNode>
            </feMerge>
        </filter>
        <path d="M0.906175,66.2074 C0.906175,102.597863 30.62905,132.097262 67.2948,132.097262 C103.958875,132.097262 133.68175,102.597863 133.68175,66.2074 C133.68175,29.815275 103.958875,0.315875 67.2948,0.315875 C30.62905,0.315875 0.906175,29.815275 0.906175,66.2074" id="path-18"></path>
        <path d="M66.98325,0.0335 C30.0487633,0.0335 0,30.0822633 0,67.01675 C0,103.951237 30.0487633,134 66.98325,134 C103.917737,134 133.9665,103.951237 133.9665,67.01675 C133.9665,30.0822633 103.917737,0.0335 66.98325,0.0335 Z M1.80729398,67.01675 C1.80729398,31.0776088 31.0441088,1.84079398 66.98325,1.84079398 C102.922391,1.84079398 132.159206,31.0776088 132.159206,67.01675 C132.159206,102.954224 102.922391,132.192706 66.98325,132.192706 C31.0441088,132.192706 1.80729398,102.954224 1.80729398,67.01675 Z" id="path-20"></path>
        <filter x="-99.2%" y="-99.2%" width="298.5%" height="298.5%" filterUnits="objectBoundingBox" id="filter-22">
            <feOffset dx="0" dy="30" in="SourceAlpha" result="shadowOffsetOuter1"></feOffset>
            <feGaussianBlur stdDeviation="19" in="shadowOffsetOuter1" result="shadowBlurOuter1"></feGaussianBlur>
            <feColorMatrix values="0 0 0 0 0   0 0 0 0 0   0 0 0 0 0  0 0 0 0.2830899 0" type="matrix" in="shadowBlurOuter1" result="shadowMatrixOuter1"></feColorMatrix>
            <feMerge>
                <feMergeNode in="shadowMatrixOuter1"></feMergeNode>
                <feMergeNode in="SourceGraphic"></feMergeNode>
            </feMerge>
        </filter>
        <path d="M0.89265,65.2118 C0.89265,101.055038 30.1719,130.110838 66.2904,130.110838 C102.40725,130.110838 131.6865,101.055038 131.6865,65.2118 C131.6865,29.366925 102.40725,0.311125 66.2904,0.311125 C30.1719,0.311125 0.89265,29.366925 0.89265,65.2118" id="path-23"></path>
        <path d="M65.968,0.064 C29.593321,0.064 0,29.657321 0,66.032 C0,102.406679 29.593321,132 65.968,132 C102.342679,132 131.936,102.406679 131.936,66.032 C131.936,29.657321 102.342679,0.064 65.968,0.064 Z M1.77990123,66.032 C1.77990123,30.6375802 30.5735802,1.84390123 65.968,1.84390123 C101.36242,1.84390123 130.156099,30.6375802 130.156099,66.032 C130.156099,101.424778 101.36242,130.220099 65.968,130.220099 C30.5735802,130.220099 1.77990123,101.424778 1.77990123,66.032 Z" id="path-25"></path>
        <filter x="-76.2%" y="-76.2%" width="252.3%" height="252.9%" filterUnits="objectBoundingBox" id="filter-27">
            <feOffset dx="0" dy="30" in="SourceAlpha" result="shadowOffsetOuter1"></feOffset>
            <feGaussianBlur stdDeviation="19" in="shadowOffsetOuter1" result="shadowBlurOuter1"></feGaussianBlur>
            <feColorMatrix values="0 0 0 0 0   0 0 0 0 0   0 0 0 0 0  0 0 0 0.2830899 0" type="matrix" in="shadowBlurOuter1" result="shadowMatrixOuter1"></feColorMatrix>
            <feMerge>
                <feMergeNode in="shadowMatrixOuter1"></feMergeNode>
                <feMergeNode in="SourceGraphic"></feMergeNode>
            </feMerge>
        </filter>
        <path d="M0.16315,85.1238 C0.16315,131.911537 38.3149,169.839337 85.3784,169.839337 C132.43975,169.839337 170.5915,131.911537 170.5915,85.1238 C170.5915,38.333925 132.43975,0.406125 85.3784,0.406125 C38.3149,0.406125 0.16315,38.333925 0.16315,85.1238" id="path-28"></path>
        <path d="M85.958303,0.0833939394 C38.560994,0.0833939394 0,38.644388 0,86.041697 C0,133.439006 38.560994,172 85.958303,172 C133.355612,172 171.916606,133.439006 171.916606,86.041697 C171.916606,38.644388 133.355612,0.0833939394 85.958303,0.0833939394 Z M2.31926525,86.041697 C2.31926525,39.9216955 39.8383015,2.40265918 85.958303,2.40265918 C132.078305,2.40265918 169.597341,39.9216955 169.597341,86.041697 C169.597341,132.159559 132.078305,169.680735 85.958303,169.680735 C39.8383015,169.680735 2.31926525,132.159559 2.31926525,86.041697 Z" id="path-30"></path>
    </defs>
    <g id="Revised" stroke="none" stroke-width="1" fill="none" fill-rule="evenodd">
        <g id="CCS-Home-Page" transform="translate(-160.000000, -2980.000000)">
            <g id="Group-10" transform="translate(198.000000, 2987.000000)">
                <g id="Group-4">
                    <g id="Group-13" filter="url(#filter-1)" transform="translate(0.000000, 32.000000)">
                        <g id="Group-3" transform="translate(432.000000, 0.000000)">
                            <mask id="mask-3" fill="white">
                                <use xlink:href="#path-2"></use>
                            </mask>
                            <g id="Clip-2"></g>
                            <path d="M0.0222513661,21.7081673 L0.0222513661,251.703284 C0.0222513661,259.234272 10.5401749,260.90846 12.8546011,253.74745 L83.8971148,33.9117391 C87.8994098,21.5281778 80.1235628,8.47037028 67.3906667,6.09050951 C52.7596284,3.35638374 37.9183169,1.3950699 22.9207213,0.243708687 C10.5486995,-0.707664229 0.0222513661,9.23175431 0.0222513661,21.7081673" id="Fill-1" fill="#8A6DE7" mask="url(#mask-3)"></path>
                        </g>
                        <path d="M559.142013,46.910053 L479.344958,292.310082 C477.362689,298.40521 484.344967,303.472813 489.533764,299.707124 L705.119107,143.194508 C716.18463,135.161515 717.051337,118.99549 706.92117,109.814925 C672.061267,78.2202933 631.911023,52.3535103 587.949273,33.7008444 C576.356003,28.7818683 563.035041,34.9413067 559.142013,46.910053" id="Fill-4" fill="#6A64B8"></path>
                        <g id="Group-8" transform="translate(0.000000, 16.000000)">
                            <mask id="mask-5" fill="white">
                                <use xlink:href="#path-4"></use>
                            </mask>
                            <g id="Clip-7"></g>
                            <path d="M326.961874,332.639486 L326.961874,22.0158164 C326.961874,7.54836565 312.976555,-2.81390131 299.152594,1.42702648 C178.45104,38.4494116 75.5459961,128.956355 27.4327297,256.261348 C-23.0237987,389.774843 -1.53033144,532.849 72.6444066,642.791624 C81.0236031,655.210055 99.1371183,655.615858 107.938987,643.494635 L321.559948,349.277412 C325.071271,344.442068 326.961874,338.617937 326.961874,332.639486" id="Fill-6" fill="#5533E8" mask="url(#mask-5)"></path>
                        </g>
                        <path d="M782.738617,583.883154 C794.084268,592.130682 810.231044,587.485654 815.324399,574.413401 C833.828971,526.924869 844,475.266223 844,421.224451 C844,345.921371 824.286593,275.224813 789.743584,214.013696 C783.41431,202.798313 768.782854,199.526684 758.366637,207.098208 L518.720946,381.291756 C515.093018,383.92874 515.093018,389.338194 518.720946,391.975178 L782.738617,583.883154 Z" id="Fill-9" fill="#5F91E6"></path>
                        <path d="M223.106406,766.868993 C215.300935,777.583888 219.02517,792.676193 230.870465,798.666107 C288.187696,827.652734 353.013374,844 421.673243,844 C537.912783,844 643.175254,797.174683 719.580618,721.419718 C729.015441,712.063771 727.918734,696.546973 717.157295,688.746552 L436.38597,485.260407 C433.432857,483.119422 429.298785,483.771831 427.152495,486.717644 L223.106406,766.868993 Z" id="Fill-11" fill="#3363C1"></path>
                    </g>
                    <path d="M81.17211,380.796875 L111.48461,339.234375 L118.789297,339.234375 L118.789297,380.054688 L131.054922,380.054688 L130.976797,383.414062 L118.789297,383.414062 L118.789297,395.953125 L127.73461,395.953125 L127.73461,399 L97.9299225,399 L97.9299225,395.953125 L108.398672,395.953125 L108.398672,383.414062 L81.17211,383.414062 L81.17211,380.796875 Z M108.398672,380.054688 L108.398672,349.507812 L86.5236725,380.054688 L108.398672,380.054688 Z M183.692865,391.460938 C181.531396,394.117201 178.953297,396.167962 175.95849,397.613281 C172.963683,399.058601 169.734549,399.78125 166.27099,399.78125 C159.291788,399.78125 153.458513,396.962268 148.77099,391.324219 C144.083467,385.68617 141.73974,378.335983 141.73974,369.273438 C141.73974,360.210892 144.089977,352.808622 148.790521,347.066406 C153.491066,341.32419 159.291789,338.453125 166.192865,338.453125 C169.682466,338.453125 172.924621,339.195305 175.919427,340.679688 C178.914234,342.16407 181.505354,344.260403 183.692865,346.96875 C188.354347,352.697945 190.685052,360.126256 190.685052,369.253906 C190.685052,378.381556 188.354347,385.783826 183.692865,391.460938 Z M166.192865,396.539062 C173.744986,396.539062 177.976715,389.859442 178.888177,376.5 C179.044428,374.18228 179.122552,371.39585 179.122552,368.140625 C179.122552,359.989543 178.276207,353.765646 176.58349,349.46875 C174.55223,344.286432 171.088723,341.695312 166.192865,341.695312 C159.135538,341.695312 155.020996,347.20307 153.849115,358.21875 C153.510572,361.578142 153.341302,364.8854 153.341302,368.140625 C153.341302,371.39585 153.419427,374.18228 153.575677,376.5 C153.731928,378.81772 153.992342,380.979157 154.356927,382.984375 C155.138181,387.307313 156.472803,390.647124 158.360834,393.003906 C160.248864,395.360689 162.859515,396.539062 166.192865,396.539062 Z M219.924557,366.851562 C216.278706,366.851562 213.244882,365.523451 210.822995,362.867188 C208.401108,360.210924 207.190182,356.766948 207.190182,352.535156 C207.190182,348.303364 208.414129,344.839857 210.862057,342.144531 C213.309986,339.449205 216.3373,338.101562 219.944089,338.101562 C223.550878,338.101562 226.539129,339.436185 228.908932,342.105469 C231.278736,344.774753 232.46362,348.251281 232.46362,352.535156 C232.46362,356.819032 231.285246,360.276029 228.928464,362.90625 C226.571681,365.536471 223.570409,366.851562 219.924557,366.851562 Z M219.846432,363.960938 C223.622493,363.960938 225.510495,360.158892 225.510495,352.554688 C225.510495,348.96092 225.217529,346.441413 224.631589,344.996094 C224.045648,343.550774 223.381592,342.535159 222.639401,341.949219 C221.89721,341.363278 220.96623,341.070312 219.846432,341.070312 C217.711005,341.070312 216.200604,342.177072 215.315182,344.390625 C214.586012,346.187509 214.221432,348.374987 214.221432,350.953125 C214.221432,355.536481 214.631585,358.85025 215.451901,360.894531 C216.272218,362.938812 217.737047,363.960938 219.846432,363.960938 Z M243.362057,395.835938 C240.966212,393.179674 239.768307,389.735698 239.768307,385.503906 C239.768307,381.272114 240.992254,377.808607 243.440182,375.113281 C245.888111,372.417955 248.915425,371.070312 252.522214,371.070312 C256.129003,371.070312 259.117254,372.404935 261.487057,375.074219 C263.856861,377.743503 265.041745,381.220031 265.041745,385.503906 C265.041745,389.787782 263.863371,393.244779 261.506589,395.875 C259.149806,398.505221 256.142024,399.820312 252.483151,399.820312 C248.824279,399.820312 245.783945,398.492201 243.362057,395.835938 Z M252.424557,396.929688 C256.200618,396.929688 258.08862,393.127642 258.08862,385.523438 C258.08862,379.950493 257.138109,376.395841 255.237057,374.859375 C254.481845,374.286455 253.544355,374 252.424557,374 C250.28913,374 248.817791,375.009104 248.010495,377.027344 C247.203199,379.045583 246.799557,381.343737 246.799557,383.921875 C246.799557,388.505231 247.20971,391.819 248.030026,393.863281 C248.850343,395.907562 250.315172,396.929688 252.424557,396.929688 Z M255.549557,339.234375 L259.416745,339.234375 L215.080807,399 L211.096432,399 L255.549557,339.234375 Z" id="40%" fill="#FFFFFF"></path>
                    <path d="M679.381796,428.067383 C681.280243,428.067383 682.501911,426.63478 683.046835,423.769531 L684.998007,423.769531 L684.998007,434 L657.391562,434 L657.391562,431.65332 L661.241171,428.462891 C664.282202,425.826159 667.112252,422.925797 669.731406,419.761719 C674.51268,413.996065 676.903281,408.669946 676.903281,403.783203 C676.903281,400.707016 676.230924,398.514167 674.886191,397.20459 C673.541457,395.895013 671.911103,395.240234 669.995077,395.240234 C666.461857,395.240234 663.851531,396.461902 662.164023,398.905273 C663.658171,399.063477 664.668903,399.845696 665.196249,401.251953 C665.336875,401.656252 665.407187,402.095701 665.407187,402.570312 C665.407187,403.589849 665.024866,404.442379 664.260214,405.12793 C663.495562,405.81348 662.708949,406.15625 661.900351,406.15625 C660.511672,406.15625 659.439417,405.787113 658.683554,405.048828 C657.927691,404.310543 657.549765,403.326178 657.549765,402.095703 C657.549765,399.740223 658.885689,397.648447 661.557577,395.820312 C664.264622,394.027335 667.512148,393.130859 671.300253,393.130859 C675.088358,393.130859 678.221628,394.036124 680.700156,395.84668 C683.178684,397.657236 684.417929,400.329084 684.417929,403.862305 C684.417929,408.063498 682.299786,412.457985 678.063437,417.045898 C675.655222,419.647474 673.264621,421.871085 670.891562,423.716797 L665.169882,428.067383 L679.381796,428.067383 Z M723.692682,428.911133 C722.23369,430.704111 720.493473,432.088374 718.471979,433.063965 C716.450484,434.039556 714.270819,434.527344 711.932916,434.527344 C707.221955,434.527344 703.284495,432.624531 700.120416,428.818848 C696.956338,425.013165 695.374323,420.051788 695.374323,413.93457 C695.374323,407.817352 696.960732,402.82082 700.1336,398.944824 C703.306467,395.068828 707.221955,393.130859 711.880182,393.130859 C714.235662,393.130859 716.424117,393.631831 718.445612,394.633789 C720.467106,395.635747 722.216112,397.050772 723.692682,398.878906 C726.839182,402.746113 728.412408,407.760223 728.412408,413.921387 C728.412408,420.08255 726.839182,425.079082 723.692682,428.911133 Z M711.880182,432.338867 C716.977864,432.338867 719.83428,427.830123 720.449518,418.8125 C720.554987,417.248039 720.607721,415.367198 720.607721,413.169922 C720.607721,407.667941 720.036438,403.466811 718.893854,400.566406 C717.522753,397.068342 715.184886,395.319336 711.880182,395.319336 C707.116486,395.319336 704.33917,399.037072 703.548151,406.472656 C703.319634,408.740246 703.205377,410.972645 703.205377,413.169922 C703.205377,415.367198 703.258111,417.248039 703.36358,418.8125 C703.46905,420.376961 703.644829,421.835931 703.890924,423.189453 C704.41827,426.107436 705.31914,428.361808 706.593561,429.952637 C707.867981,431.543465 709.630171,432.338867 711.880182,432.338867 Z M748.149075,412.299805 C745.688126,412.299805 743.640294,411.403329 742.005521,409.610352 C740.370747,407.817374 739.553372,405.49269 739.553372,402.63623 C739.553372,399.779771 740.379536,397.441904 742.031888,395.622559 C743.68424,393.803214 745.727676,392.893555 748.162259,392.893555 C750.596841,392.893555 752.613911,393.794425 754.213528,395.596191 C755.813146,397.397958 756.612943,399.744614 756.612943,402.63623 C756.612943,405.527846 755.81754,407.861319 754.226712,409.636719 C752.635884,411.412118 750.610025,412.299805 748.149075,412.299805 Z M748.096341,410.348633 C750.645182,410.348633 751.919583,407.782252 751.919583,402.649414 C751.919583,400.223621 751.721831,398.522954 751.326321,397.547363 C750.930812,396.571772 750.482574,395.886232 749.981595,395.490723 C749.480616,395.095213 748.852204,394.897461 748.096341,394.897461 C746.654927,394.897461 745.635406,395.644524 745.037747,397.138672 C744.545557,398.351569 744.299466,399.828116 744.299466,401.568359 C744.299466,404.662125 744.576319,406.898919 745.130032,408.278809 C745.683746,409.658698 746.672506,410.348633 748.096341,410.348633 Z M763.969388,431.864258 C762.352192,430.07128 761.543607,427.746596 761.543607,424.890137 C761.543607,422.033677 762.36977,419.69581 764.022122,417.876465 C765.674474,416.05712 767.717911,415.147461 770.152493,415.147461 C772.587076,415.147461 774.604145,416.048331 776.203763,417.850098 C777.80338,419.651864 778.603177,421.998521 778.603177,424.890137 C778.603177,427.781753 777.807775,430.115225 776.216946,431.890625 C774.626118,433.666025 772.595865,434.553711 770.126126,434.553711 C767.656387,434.553711 765.604162,433.657236 763.969388,431.864258 Z M770.086575,432.602539 C772.635416,432.602539 773.909818,430.036158 773.909818,424.90332 C773.909818,421.141583 773.268222,418.742193 771.985013,417.705078 C771.475245,417.318357 770.842438,417.125 770.086575,417.125 C768.645162,417.125 767.652008,417.806146 767.107083,419.168457 C766.562159,420.530769 766.2897,422.082023 766.2897,423.822266 C766.2897,426.916031 766.566553,429.152825 767.120267,430.532715 C767.67398,431.912605 768.66274,432.602539 770.086575,432.602539 Z M772.19595,393.658203 L774.806302,393.658203 L744.879544,434 L742.190091,434 L772.19595,393.658203 Z" id="20%" fill="#FFFFFF"></path>
                    <path d="M427.998846,757.97998 C430.565265,757.97998 432.216778,756.043314 432.953436,752.169922 L435.591131,752.169922 L435.591131,766 L398.271307,766 L398.271307,762.827637 L403.475408,758.514648 C407.586431,754.950177 411.41224,751.029318 414.952947,746.751953 C421.416521,738.957643 424.64826,731.75752 424.64826,725.151367 C424.64826,720.992818 423.739333,718.028411 421.921453,716.258057 C420.103573,714.487703 417.899575,713.602539 415.309393,713.602539 C410.533002,713.602539 407.004228,715.254052 404.722967,718.557129 C406.742834,718.770997 408.109194,719.828441 408.822088,721.729492 C409.012193,722.276044 409.107244,722.870114 409.107244,723.511719 C409.107244,724.889981 408.590404,726.042476 407.556707,726.969238 C406.523011,727.896001 405.459626,728.359375 404.366522,728.359375 C402.489233,728.359375 401.039704,727.860357 400.017889,726.862305 C398.996074,725.864253 398.485174,724.533537 398.485174,722.870117 C398.485174,719.685856 400.291145,716.858085 403.903143,714.386719 C407.562666,711.962879 411.95284,710.750977 417.073797,710.750977 C422.194754,710.750977 426.43047,711.97476 429.781072,714.422363 C433.131675,716.869967 434.806951,720.48191 434.806951,725.258301 C434.806951,730.937691 431.943536,736.878387 426.216619,743.080566 C422.961069,746.597511 419.729331,749.603503 416.521307,752.098633 L408.786443,757.97998 L427.998846,757.97998 Z M466.870324,735.55957 C462.45038,735.55957 458.00674,736.66454 453.53927,738.874512 L455.464074,711.463867 L486.724328,711.463867 L484.906457,725.080078 L482.126184,725.080078 L481.912316,722.834473 C481.698448,720.862132 480.617242,719.685874 478.668664,719.305664 C477.979533,719.186848 477.147836,719.127441 476.173547,719.127441 L458.600793,719.127441 L457.281945,734.882324 C459.58697,733.313957 462.628606,732.23275 466.406945,731.638672 C467.547576,731.47233 468.628783,731.38916 469.650598,731.38916 C475.520093,731.38916 480.082548,732.92186 483.338098,735.987305 C486.593648,739.05275 488.221398,743.080541 488.221398,748.070801 C488.221398,753.89277 486.18374,758.455224 482.108361,761.758301 C478.032983,765.061377 472.763586,766.712891 466.300012,766.712891 C462.141462,766.712891 458.458231,765.732676 455.250207,763.772217 C452.042183,761.811758 450.438195,759.251318 450.438195,756.09082 C450.438195,754.641269 450.943154,753.411545 451.953088,752.401611 C452.963021,751.391678 454.014525,750.886719 455.107629,750.886719 C456.913628,750.886719 458.327513,751.397619 459.349328,752.419434 C460.371143,753.441249 460.882043,754.766024 460.882043,756.393799 C460.882043,758.021574 460.121634,759.370112 458.600793,760.439453 C458.12553,760.772137 457.567105,761.021646 456.9255,761.187988 C458.921604,762.970224 461.927596,763.861328 465.943566,763.861328 C472.003167,763.861328 475.924026,761.128608 477.706262,755.663086 C478.324103,753.762035 478.63302,751.67091 478.63302,749.389648 C478.63302,745.040994 477.539932,741.648857 475.353723,739.213135 C473.167514,736.777413 470.339743,735.55957 466.870324,735.55957 Z M514.831158,736.664551 C511.504319,736.664551 508.735954,735.452649 506.525982,733.028809 C504.31601,730.604968 503.211041,727.46234 503.211041,723.60083 C503.211041,719.73932 504.327892,716.57887 506.561627,714.119385 C508.795362,711.6599 511.557786,710.430176 514.84898,710.430176 C518.140175,710.430176 520.866955,711.648018 523.0294,714.08374 C525.191846,716.519462 526.273053,719.691794 526.273053,723.60083 C526.273053,727.509867 525.197787,730.664376 523.047223,733.064453 C520.896659,735.46453 518.157998,736.664551 514.831158,736.664551 Z M514.759869,734.026855 C518.205524,734.026855 519.928326,730.557489 519.928326,723.618652 C519.928326,720.339339 519.660995,718.04029 519.126324,716.721436 C518.591654,715.402581 517.985703,714.475833 517.308453,713.941162 C516.631204,713.406491 515.781684,713.13916 514.759869,713.13916 C512.811292,713.13916 511.43305,714.149078 510.625104,716.168945 C509.959736,717.808602 509.627057,719.804676 509.627057,722.157227 C509.627057,726.339539 510.00132,729.363353 510.749859,731.22876 C511.498398,733.094166 512.835055,734.026855 514.759869,734.026855 Z M536.217877,763.112793 C534.031668,760.688953 532.93858,757.546325 532.93858,753.684814 C532.93858,749.823304 534.055431,746.662854 536.289166,744.203369 C538.522901,741.743884 541.285325,740.51416 544.57652,740.51416 C547.867714,740.51416 550.594494,741.732003 552.756939,744.167725 C554.919385,746.603446 556.000592,749.775778 556.000592,753.684814 C556.000592,757.593851 554.925326,760.74836 552.774762,763.148438 C550.624198,765.548515 547.879596,766.748535 544.540875,766.748535 C541.202154,766.748535 538.427849,765.536633 536.217877,763.112793 Z M544.487408,764.11084 C547.933063,764.11084 549.655865,760.641473 549.655865,753.702637 C549.655865,748.617325 548.788524,745.373705 547.053814,743.97168 C546.364683,743.448891 545.509223,743.1875 544.487408,743.1875 C542.538831,743.1875 541.196234,744.108308 540.459576,745.949951 C539.722919,747.791594 539.354596,749.88866 539.354596,752.241211 C539.354596,756.423524 539.72886,759.447338 540.477398,761.312744 C541.225937,763.178151 542.562594,764.11084 544.487408,764.11084 Z M547.338971,711.463867 L550.867779,711.463867 L510.411236,766 L506.775494,766 L547.338971,711.463867 Z" id="25%" fill="#FFFFFF"></path>
                    <path d="M461.675686,80.5927734 C459.943907,82.6093851 457.67098,83.6176758 454.856838,83.6176758 C453.979555,83.6176758 453.039623,83.4638687 452.037014,83.15625 C451.034405,82.8486313 450.140045,82.3587273 449.353909,81.6865234 C447.610736,80.194003 446.739163,78.0464007 446.739163,75.2436523 C446.739163,72.8510623 447.679095,70.7974532 449.558987,69.0827637 C451.438879,67.3680741 453.666233,66.5107422 456.241116,66.5107422 C459.260337,66.5107422 461.712705,67.632964 463.598293,69.8774414 C465.483882,72.1219188 466.426663,75.1809702 466.426663,79.0546875 C466.426663,82.9284048 465.441158,86.2153185 463.47012,88.9155273 C462.125712,90.772633 460.405351,92.0657516 458.308987,92.7949219 C457.238018,93.159507 456.155672,93.3417969 455.061916,93.3417969 C453.068091,93.3417969 451.492993,93.0085483 450.336575,92.342041 C449.180156,91.6755338 448.556383,90.8068087 448.465237,89.7358398 L448.465237,89.5136719 C448.465237,88.7845016 448.667465,88.186363 449.071926,87.7192383 C449.476388,87.2521135 449.957747,87.0185547 450.516018,87.0185547 C451.393301,87.0185547 452.051253,87.2578101 452.489895,87.7363281 C452.928537,88.2148461 453.147854,88.8243778 453.147854,89.5649414 C453.147854,90.305505 452.828847,90.8865539 452.190823,91.3081055 C452.817453,91.8549832 453.71751,92.128418 454.891018,92.128418 C457.078529,92.128418 458.739076,91.0887962 459.872708,89.0095215 C461.006339,86.9302468 461.607326,84.1246921 461.675686,80.5927734 Z M453.831448,81.3789062 C454.423899,81.7320981 455.073306,81.9086914 455.77969,81.9086914 C457.044345,81.9086914 458.183656,81.5896842 459.197659,80.9516602 C460.200268,80.3136361 461.026269,79.464849 461.675686,78.4052734 C461.561753,73.4378007 460.542069,70.202156 458.616604,68.6982422 C457.9444,68.1855443 457.186758,67.9291992 456.343655,67.9291992 C454.737201,67.9291992 453.486807,68.5415792 452.592434,69.7663574 C451.698061,70.9911357 451.250881,72.6402891 451.250881,74.7138672 C451.250881,78.1546396 452.111062,80.3762971 453.831448,81.3789062 Z M478.466993,78.9350586 C476.871933,78.9350586 475.544635,78.3540097 474.48506,77.1918945 C473.425484,76.0297793 472.895704,74.5230399 472.895704,72.6716309 C472.895704,70.8202219 473.431181,69.3049375 474.50215,68.1257324 C475.573119,66.9465273 476.897568,66.3569336 478.475538,66.3569336 C480.053508,66.3569336 481.360868,66.9408307 482.397657,68.1086426 C483.434447,69.2764544 483.952833,70.7974353 483.952833,72.6716309 C483.952833,74.5458264 483.437295,76.0582625 482.406202,77.2089844 C481.37511,78.3597063 480.062053,78.9350586 478.466993,78.9350586 Z M478.432814,77.6704102 C480.08484,77.6704102 480.910841,76.0070153 480.910841,72.6801758 C480.910841,71.1079023 480.782669,70.0056184 480.52632,69.373291 C480.269971,68.7409636 479.979446,68.2966321 479.654738,68.0402832 C479.330029,67.7839343 478.922725,67.6557617 478.432814,67.6557617 C477.498564,67.6557617 476.837764,68.1399691 476.450392,69.1083984 C476.13138,69.8945352 475.971876,70.8515569 475.971876,71.9794922 C475.971876,73.9847105 476.151318,75.4344845 476.510206,76.3288574 C476.869095,77.2232304 477.509958,77.6704102 478.432814,77.6704102 Z M488.7209,91.6157227 C487.672717,90.4536075 487.148634,88.946868 487.148634,87.095459 C487.148634,85.24405 487.68411,83.7287657 488.755079,82.5495605 C489.826048,81.3703554 491.150498,80.7807617 492.728468,80.7807617 C494.306438,80.7807617 495.613798,81.3646589 496.650587,82.5324707 C497.687376,83.7002825 498.205763,85.2212634 498.205763,87.095459 C498.205763,88.9696546 497.690224,90.4820906 496.659132,91.6328125 C495.62804,92.7835344 494.312135,93.3588867 492.711378,93.3588867 C491.110621,93.3588867 489.780475,92.7778378 488.7209,91.6157227 Z M492.685743,92.0942383 C494.33777,92.0942383 495.163771,90.4308435 495.163771,87.1040039 C495.163771,84.6658407 494.747922,83.1106804 493.916212,82.4384766 C493.585807,82.1878243 493.175655,82.0625 492.685743,82.0625 C491.751494,82.0625 491.107783,82.5039832 490.754591,83.3869629 C490.401399,84.2699426 490.224806,85.275385 490.224806,86.4033203 C490.224806,88.4085387 490.404247,89.8583126 490.763136,90.7526855 C491.122024,91.6470585 491.762887,92.0942383 492.685743,92.0942383 Z M494.052931,66.8525391 L495.744825,66.8525391 L476.347853,93 L474.604689,93 L494.052931,66.8525391 Z" id="9%" fill="#FFFFFF"></path>
                    <path d="M564.468864,187.476562 L567.945427,187.476562 L567.945427,160.757812 L564.586052,161.070312 L564.586052,159.566406 L573.140739,158.648438 L573.140739,187.476562 L576.636833,187.476562 L576.636833,189 L564.468864,189 L564.468864,187.476562 Z M605.84643,185.230469 C604.765696,186.5586 603.476646,187.583981 601.979243,188.306641 C600.48184,189.0293 598.867272,189.390625 597.135493,189.390625 C593.645892,189.390625 590.729255,187.981134 588.385493,185.162109 C586.041731,182.343085 584.869868,178.667991 584.869868,174.136719 C584.869868,169.605446 586.044986,165.904311 588.395259,163.033203 C590.745531,160.162095 593.645892,158.726562 597.09643,158.726562 C598.841231,158.726562 600.462308,159.097653 601.959712,159.839844 C603.457115,160.582035 604.752675,161.630202 605.84643,162.984375 C608.177171,165.848973 609.342524,169.563128 609.342524,174.126953 C609.342524,178.690778 608.177171,182.391913 605.84643,185.230469 Z M597.09643,187.769531 C600.872491,187.769531 602.988355,184.429721 603.444087,177.75 C603.522212,176.59114 603.561274,175.197925 603.561274,173.570312 C603.561274,169.494771 603.138101,166.382823 602.291743,164.234375 C601.276113,161.643216 599.544359,160.347656 597.09643,160.347656 C593.567767,160.347656 591.510496,163.101535 590.924555,168.609375 C590.755284,170.289071 590.670649,171.9427 590.670649,173.570312 C590.670649,175.197925 590.709711,176.59114 590.787837,177.75 C590.865962,178.90886 590.996169,179.989578 591.178462,180.992188 C591.569089,183.153657 592.2364,184.823562 593.180415,186.001953 C594.12443,187.180344 595.429756,187.769531 597.09643,187.769531 Z M623.962278,172.925781 C622.139352,172.925781 620.62244,172.261725 619.411496,170.933594 C618.200553,169.605462 617.59509,167.883474 617.59509,165.767578 C617.59509,163.651682 618.207063,161.919929 619.431028,160.572266 C620.654992,159.224603 622.168649,158.550781 623.972043,158.550781 C625.775438,158.550781 627.269563,159.218092 628.454465,160.552734 C629.639367,161.887376 630.231809,163.62564 630.231809,165.767578 C630.231809,167.909516 629.642622,169.638014 628.464231,170.953125 C627.28584,172.268236 625.785204,172.925781 623.962278,172.925781 Z M623.923215,171.480469 C625.811246,171.480469 626.755246,169.579446 626.755246,165.777344 C626.755246,163.98046 626.608764,162.720707 626.315793,161.998047 C626.022823,161.275387 625.690795,160.76758 625.3197,160.474609 C624.948604,160.181639 624.483114,160.035156 623.923215,160.035156 C622.855502,160.035156 622.100301,160.588536 621.65759,161.695312 C621.293005,162.593754 621.110715,163.687494 621.110715,164.976562 C621.110715,167.268241 621.315791,168.925125 621.72595,169.947266 C622.136108,170.969406 622.868522,171.480469 623.923215,171.480469 Z M635.681028,187.417969 C634.483105,186.089837 633.884153,184.367849 633.884153,182.251953 C633.884153,180.136057 634.496126,178.404304 635.72009,177.056641 C636.944055,175.708978 638.457711,175.035156 640.261106,175.035156 C642.0645,175.035156 643.558626,175.702467 644.743528,177.037109 C645.92843,178.371751 646.520871,180.110015 646.520871,182.251953 C646.520871,184.393891 645.931685,186.122389 644.753293,187.4375 C643.574902,188.752611 642.071011,189.410156 640.241575,189.410156 C638.412138,189.410156 636.891971,188.7461 635.681028,187.417969 Z M640.212278,187.964844 C642.100308,187.964844 643.044309,186.063821 643.044309,182.261719 C643.044309,179.475246 642.569053,177.697921 641.618528,176.929688 C641.240922,176.643228 640.772176,176.5 640.212278,176.5 C639.144564,176.5 638.408894,177.004552 638.005246,178.013672 C637.601599,179.022792 637.399778,180.171869 637.399778,181.460938 C637.399778,183.752616 637.604854,185.4095 638.015012,186.431641 C638.42517,187.453781 639.157585,187.964844 640.212278,187.964844 Z M641.774778,159.117188 L643.708371,159.117188 L621.540403,189 L619.548215,189 L641.774778,159.117188 Z" id="10%" fill="#FFFFFF"></path>
                    <g id="Group-9" filter="url(#filter-6)" transform="translate(79.000000, 57.000000)">
                        <path d="M1,77.5 C1,35.8010799 35.0264164,2 76.9990412,2 C118.971666,2 153,35.8010799 153,77.5 C153,119.197015 118.971666,153 76.9990412,153 C35.0264164,153 1,119.197015 1,77.5" id="Fill-1" fill="#B5B5B5"></path>
                        <g id="Group-5" transform="translate(1.000000, 2.000000)">
                            <mask id="mask-8" fill="white">
                                <use xlink:href="#path-7"></use>
                            </mask>
                            <g id="Clip-4"></g>
                            <path d="M0.041425,75.6656 C0.041425,117.2547 34.20055,150.9683 76.3388,150.9683 C118.475125,150.9683 152.63425,117.2547 152.63425,75.6656 C152.63425,34.0746 118.475125,0.361 76.3388,0.361 C34.20055,0.361 0.041425,34.0746 0.041425,75.6656" id="Fill-3" fill="#FFFFFF" mask="url(#mask-8)"></path>
                        </g>
                        <g id="Group-8">
                            <mask id="mask-10" fill="white">
                                <use xlink:href="#path-9"></use>
                            </mask>
                            <g id="Clip-7"></g>
                            <path d="M76.88,0.24 C34.4884568,0.24 0,34.7284568 0,77.12 C0,119.511543 34.4884568,154 76.88,154 C119.271543,154 153.76,119.511543 153.76,77.12 C153.76,34.7284568 119.271543,0.24 76.88,0.24 Z M2.07432099,77.12 C2.07432099,35.8708642 35.6308642,2.31432099 76.88,2.31432099 C118.129136,2.31432099 151.685679,35.8708642 151.685679,77.12 C151.685679,118.367222 118.129136,151.925679 76.88,151.925679 C35.6308642,151.925679 2.07432099,118.367222 2.07432099,77.12 Z" id="Fill-6" fill="url(#linearGradient-11)" mask="url(#mask-10)"></path>
                        </g>
                    </g>
                    <g id="development" transform="translate(120.000000, 106.000000)" fill="#5533E8">
                        <path d="M4.56035,35.4395 C4.2815,35.1605 3.8945,35 3.5,35 C3.1055,35 2.7185,35.1605 2.4395,35.4395 C2.1605,35.7185 2,36.104 2,36.5 C2,36.8945 2.16035,37.2815 2.4395,37.5605 C2.7185,37.83935 3.1055,38 3.5,38 C3.8945,38 4.2815,37.8395 4.56035,37.5605 C4.83935,37.28 5,36.8945 5,36.5 C5,36.1055 4.8395,35.7185 4.56035,35.4395 Z" id="Path"></path>
                        <path d="M8.56069116,3.15720261 L5.56071616,0.403187772 C4.97482104,-0.134395924 4.02532896,-0.134395924 3.43928384,0.403187772 L0.439308839,3.15720261 C-0.14643628,3.69492401 -0.14643628,4.5668451 0.439308839,5.1047042 C1.02520396,5.6422879 1.97469604,5.6422879 2.56074116,5.1047042 L3.0000875,4.70151643 L3.0000875,30.6229926 C3.0000875,31.3833761 3.6717819,32 4.500075,32 C5.3283681,32 6.0000625,31.3833761 6.0000625,30.6229926 L6.0000625,4.70151643 L6.43940884,5.1048419 C6.7323564,5.37349605 7.1162032,5.50802967 7.50005,5.50802967 C7.8838968,5.50802967 8.2677436,5.37349605 8.56069116,5.1047042 C9.14643628,4.5669828 9.14643628,3.69506171 8.56069116,3.15720261 Z" id="Path"></path>
                        <path d="M72.5833439,51.7159771 L69.7378183,48.8652958 C69.1820872,48.3088428 68.2814784,48.3088428 67.7256049,48.8652958 C67.1700161,49.4218913 67.1700161,50.324417 67.7256049,50.8811551 L68.1423322,51.2986374 L63.0363211,51.2986374 L63.0363211,31.2962618 C63.0363211,30.5091887 62.3992079,29.8709212 61.6135583,29.8709212 C60.8279087,29.8709212 60.1907955,30.5091887 60.1907955,31.2962618 L60.1907955,51.2984948 L44.7730266,51.2984948 L44.7730266,42.1763146 C44.7730266,41.3892415 44.1359135,40.750974 43.3502639,40.750974 C42.5646143,40.750974 41.9275011,41.3892415 41.9275011,42.1763146 L41.9275011,51.2984948 L30.1000741,51.2984948 L30.1000741,28.4253407 C30.1000741,27.6382675 29.4629609,27 28.6773113,27 C27.8916617,27 27.2545485,27.6382675 27.2545485,28.4253407 L27.2545485,51.2984948 L15.8311861,51.2984948 L15.8311861,42.3901157 C15.8311861,41.6030426 15.194073,40.9647751 14.4084234,40.9647751 C13.6227738,40.9647751 12.9856606,41.6030426 12.9856606,42.3901157 L12.9856606,51.2984948 L5.84552556,51.2984948 L5.84552556,43.0949467 C5.84552556,42.3078736 5.20841239,41.669606 4.42276278,41.669606 C3.63711317,41.669606 3,42.3078736 3,43.0949467 L3,52.7238355 C3,53.5109086 3.63711317,54.1491762 4.42276278,54.1491762 L68.1421899,54.1491762 L67.7254627,54.5666584 C67.1698738,55.123254 67.1698738,56.0257797 67.7254627,56.5825177 C68.0033282,56.8607442 68.3674132,57 68.7314982,57 C69.0955832,57 69.4596682,56.8607442 69.7375338,56.5825177 L72.5830594,53.7318364 C73.1389328,53.1750983 73.1389328,52.2725726 72.5833439,51.7159771 Z" id="Path"></path>
                        <path d="M60.9056829,11 C58.0965918,11 55.8113659,13.2908898 55.8113659,16.1069431 C55.8113659,16.9145607 56.0001436,17.6787563 56.3345256,18.3583714 L45.2866567,29.4336221 C44.5493231,29.0172253 43.6995413,28.778476 42.7947346,28.778476 C41.9101037,28.778476 41.0776759,29.0060516 40.3519118,29.4051928 L32.8795319,21.9142929 C33.1734212,21.2694719 33.3384959,20.5537898 33.3384959,19.7996363 C33.3384959,16.983583 31.0532699,14.6925517 28.2441788,14.6925517 C25.4350877,14.6925517 23.1497207,16.983583 23.1497207,19.7996363 C23.1497207,20.6686384 23.367845,21.4872882 23.7513261,22.2042432 L16.5519543,29.4214583 C15.8226629,29.0170838 14.9850148,28.7861137 14.0943171,28.7861137 C11.285226,28.7861137 9,31.0770035 9,33.8930569 C9,36.7091102 11.2855081,39 14.0945992,39 C16.9036904,39 19.1890574,36.7091102 19.1890574,33.8930569 C19.1890574,32.9960498 18.9564009,32.1529311 18.54964,31.4195691 L25.7192419,24.2321976 C26.4641942,24.6603339 27.3258275,24.9065794 28.2443199,24.9065794 C29.2749784,24.9065794 30.2345278,24.597252 31.0370446,24.0677039 L38.3483004,31.3970803 C37.9363191,32.1338368 37.7004176,32.9823302 37.7004176,33.8854191 C37.7004176,36.7014725 39.9856435,38.9925037 42.7947346,38.9925037 C45.6038258,38.9925037 47.8890517,36.7014725 47.8890517,33.8854191 C47.8890517,33.0026974 47.6642962,32.171601 47.2693868,31.4464426 L58.2350006,20.4536509 C59.0121213,20.9352512 59.9268043,21.2140277 60.9056829,21.2140277 C63.714774,21.2140277 66,18.9229965 66,16.1069431 C66,13.2908898 63.714774,11 60.9056829,11 Z M14.0947403,36.1713586 C12.8417249,36.1713586 11.8222124,35.1493193 11.8222124,33.8931983 C11.8222124,32.6370773 12.8414427,31.6148966 14.0945992,31.6148966 C14.7084795,31.6148966 15.2653596,31.8611421 15.6748012,32.2591519 C15.6817146,32.2663653 15.6877814,32.2742859 15.6948359,32.2813578 C15.7031602,32.2897027 15.712331,32.2967747 15.7209374,32.3049782 C16.1202206,32.7157174 16.3674093,33.275675 16.3674093,33.8931983 C16.3674093,35.1494608 15.3477558,36.1713586 14.0947403,36.1713586 Z M28.244461,22.0776551 C26.9914455,22.0776551 25.971792,21.0556159 25.971792,19.7994949 C25.971792,18.5433738 26.9913044,17.5211931 28.244461,17.5211931 C29.4976176,17.5211931 30.5169889,18.5433738 30.5169889,19.7994949 C30.5169889,21.0556159 29.4974765,22.0776551 28.244461,22.0776551 Z M42.7950168,36.1635794 C41.5420013,36.1635794 40.5224889,35.1413987 40.5224889,33.8852777 C40.5224889,32.6291567 41.5420013,31.6071174 42.7950168,31.6071174 C44.0480323,31.6071174 45.0675447,32.6290152 45.0675447,33.8852777 C45.0675447,35.1415402 44.0480323,36.1635794 42.7950168,36.1635794 Z M60.9059651,18.3851034 C59.6529496,18.3851034 58.6334372,17.3629227 58.6334372,16.1068017 C58.6334372,14.8506807 59.6528085,13.8286414 60.9059651,13.8286414 C62.1591217,13.8286414 63.178493,14.8506807 63.178493,16.1068017 C63.178493,17.3629227 62.1589806,18.3851034 60.9059651,18.3851034 Z" id="Shape" fill-rule="nonzero"></path>
                        <path d="M62.5605,25.4395 C62.2815,25.1605 61.8945,25 61.5,25 C61.1055,25 60.7185,25.16035 60.4395,25.4395 C60.16065,25.7185 60,26.1055 60,26.5 C60,26.8945 60.1605,27.2815 60.4395,27.56035 C60.7185,27.83935 61.1055,28 61.5,28 C61.8945,28 62.2815,27.8395 62.5605,27.56035 C62.83935,27.2815 63,26.8945 63,26.5 C63,26.1055 62.8395,25.7185 62.5605,25.4395 Z" id="Path"></path>
                    </g>
                    <g id="Group-9-Copy" filter="url(#filter-12)" transform="translate(350.000000, 111.000000)">
                        <path d="M1,54 C1,25.280214 24.5050903,2 53.4993377,2 C82.4935851,2 106,25.280214 106,54 C106,82.718474 82.4935851,106 53.4993377,106 C24.5050903,106 1,82.718474 1,54" id="Fill-1" fill="#B5B5B5"></path>
                        <g id="Group-5" transform="translate(0.000000, 2.000000)">
                            <mask id="mask-14" fill="white">
                                <use xlink:href="#path-13"></use>
                            </mask>
                            <g id="Clip-4"></g>
                            <path d="M0.716825,52.269 C0.716825,80.9983125 24.22895,104.287312 53.2332,104.287312 C82.236125,104.287312 105.74825,80.9983125 105.74825,52.269 C105.74825,23.538375 82.236125,0.249375 53.2332,0.249375 C24.22895,0.249375 0.716825,23.538375 0.716825,52.269" id="Fill-3" fill="#FFFFFF" mask="url(#mask-14)"></path>
                        </g>
                        <g id="Group-8">
                            <mask id="mask-16" fill="white">
                                <use xlink:href="#path-15"></use>
                            </mask>
                            <g id="Clip-7"></g>
                            <path d="M53.072,0.856 C23.8081605,0.856 0,24.6641605 0,53.928 C0,83.1918395 23.8081605,107 53.072,107 C82.3358395,107 106.144,83.1918395 106.144,53.928 C106.144,24.6641605 82.3358395,0.856 53.072,0.856 Z M1.43195062,53.928 C1.43195062,25.4527901 24.5967901,2.28795062 53.072,2.28795062 C81.5472099,2.28795062 104.712049,25.4527901 104.712049,53.928 C104.712049,82.4018889 81.5472099,105.568049 53.072,105.568049 C24.5967901,105.568049 1.43195062,82.4018889 1.43195062,53.928 Z" id="Fill-6" fill="url(#linearGradient-11)" mask="url(#mask-16)"></path>
                        </g>
                    </g>
                    <g id="bill" transform="translate(377.000000, 144.000000)" fill="#5533E8">
                        <path d="M50.625,0 L3.375,0 C1.51105078,0 0,1.535034 0,3.4285676 L0,28.5714324 C0,30.464966 1.51105078,32 3.375,32 L23.625,32 L23.625,29.714324 L3.375,29.714324 C2.75368359,29.714324 2.24996484,29.2026103 2.24996484,28.5714324 L2.24996484,3.4285676 C2.24996484,2.79738974 2.75368359,2.28567602 3.375,2.28567602 L50.625,2.28567602 C51.2463164,2.28567602 51.7500352,2.79738974 51.7500352,3.4285676 L51.7500352,28.5714324 C51.7500352,29.2026103 51.2463164,29.714324 50.625,29.714324 L50.625,32 C52.4889492,32 54,30.464966 54,28.5714324 L54,3.4285676 C54,1.535034 52.4889492,0 50.625,0 Z" id="Path"></path>
                        <path d="M11.5458435,7.29995688 L16,7.29995688 L16,5 L10.5455196,5 C9.94303441,5 9.45458264,5.51491089 9.45458264,6.15003234 C9.45458264,8.69041034 7.50087784,10.7499461 5.09093698,10.7499461 C4.48845177,10.7499461 4,11.264857 4,11.8999784 L4,21.0999138 C4,21.7350352 4.48845177,22.2499461 5.09093698,22.2499461 C7.50087784,22.2499461 9.45458264,24.309374 9.45458264,26.8499677 C9.45458264,27.4850891 9.94303441,28 10.5455196,28 L16,28 L16,25.7000431 L11.5458435,25.7000431 C11.0766189,22.8065803 8.92665383,20.540153 6.18187397,20.0455108 L6.18187397,12.954597 C8.92665383,12.459847 11.0766189,10.1934197 11.5458435,7.29995688 Z" id="Path"></path>
                        <path d="M47.909063,10.7500539 C45.4991222,10.7500539 43.5454174,8.69051815 43.5454174,6.15003234 C43.5454174,5.51491089 43.0569656,5 42.4544804,5 L37,5 L37,7.30006469 L41.4541565,7.30006469 C41.9233811,10.1935275 44.0733462,12.4599548 46.818126,12.954597 L46.818126,20.0455108 C44.0733462,20.540153 41.9233811,22.8065803 41.4541565,25.7000431 L37,25.7000431 L37,28 L42.4544804,28 C43.0569656,28 43.5454174,27.4850891 43.5454174,26.8499677 C43.5454174,24.3094818 45.4991222,22.2499461 47.909063,22.2499461 C48.5115482,22.2499461 49,21.7350352 49,21.0999138 L49,11.8999784 C48.9998977,11.2649648 48.5115482,10.7500539 47.909063,10.7500539 Z" id="Path"></path>
                        <rect id="Rectangle" x="5" y="5" width="2" height="2"></rect>
                        <rect id="Rectangle" x="47" y="5" width="2" height="2"></rect>
                        <rect id="Rectangle" x="47" y="25" width="2" height="2"></rect>
                        <rect id="Rectangle" x="5" y="25" width="2" height="2"></rect>
                        <path d="M27.5,5 C21.1487855,5 16,10.1487018 16,16.5000539 C16,22.8512982 21.1487855,28 27.5,28 C33.8484114,27.9929922 38.9929922,22.8483873 39,16.4999461 C39,10.1487018 33.8512145,5 27.5,5 Z M27.5,25.7000323 C22.4190284,25.7000323 18.3000647,21.5810493 18.3000647,16.5000539 C18.3000647,11.4190585 22.4190284,7.29996766 27.5,7.29996766 C32.5785998,7.30568173 36.6942213,11.4213225 36.6999353,16.4999461 C36.6999353,21.5810493 32.5809716,25.7000323 27.5,25.7000323 Z" id="Shape" fill-rule="nonzero"></path>
                        <rect id="Rectangle" x="44" y="35" width="2" height="5"></rect>
                        <path d="M51.8696435,34 L5.522059,34 C5.29887029,34.0003281 5.08066252,34.0685792 4.89467192,34.1960031 L1.50339042,36.5293364 C1.37929072,36.6147596 1.27278328,36.7246832 1.19001482,36.8527633 C0.843680194,37.3888186 0.983994466,38.1132205 1.50339042,38.4706636 L4.89467192,40.8039969 C5.08066252,40.9314208 5.29887029,40.9996719 5.522059,41 L51.8695375,41 C52.4938512,41 53,40.4776168 53,39.8332786 L53,35.1665026 C53,34.5223832 52.4939572,34 51.8696435,34 Z M50.739181,38.666776 L5.86118715,38.666776 L4.1655464,37.5000547 L5.86118715,36.3333333 L50.739181,36.3333333 L50.739181,38.666776 Z" id="Shape" fill-rule="nonzero"></path>
                        <path d="M47.8421738,30 L27,30 L27,31.9999812 L46.6842391,31.9999812 L46.6842391,35 L49,35 L49,31.0000375 C49.0001085,30.4477528 48.4816595,30 47.8421738,30 Z" id="Path"></path>
                    </g>
                    <g id="Group-9-Copy-2" filter="url(#filter-17)" transform="translate(592.000000, 0.000000)">
                        <path d="M1,67.5 C1,31.3241157 30.7731143,2 67.4991611,2 C104.225208,2 134,31.3241157 134,67.5 C134,103.674232 104.225208,133 67.4991611,133 C30.7731143,133 1,103.674232 1,67.5" id="Fill-1" fill="#B5B5B5"></path>
                        <g id="Group-5" transform="translate(0.000000, 1.000000)">
                            <mask id="mask-19" fill="white">
                                <use xlink:href="#path-18"></use>
                            </mask>
                            <g id="Clip-4"></g>
                            <path d="M0.906175,66.2074 C0.906175,102.597863 30.62905,132.097262 67.2948,132.097262 C103.958875,132.097262 133.68175,102.597863 133.68175,66.2074 C133.68175,29.815275 103.958875,0.315875 67.2948,0.315875 C30.62905,0.315875 0.906175,29.815275 0.906175,66.2074" id="Fill-3" fill="#FFFFFF" mask="url(#mask-19)"></path>
                        </g>
                        <g id="Group-8">
                            <mask id="mask-21" fill="white">
                                <use xlink:href="#path-20"></use>
                            </mask>
                            <g id="Clip-7"></g>
                            <path d="M66.98325,0.0335 C30.0487633,0.0335 0,30.0822633 0,67.01675 C0,103.951237 30.0487633,134 66.98325,134 C103.917737,134 133.9665,103.951237 133.9665,67.01675 C133.9665,30.0822633 103.917737,0.0335 66.98325,0.0335 Z M1.80729398,67.01675 C1.80729398,31.0776088 31.0441088,1.84079398 66.98325,1.84079398 C102.922391,1.84079398 132.159206,31.0776088 132.159206,67.01675 C132.159206,102.954224 102.922391,132.192706 66.98325,132.192706 C31.0441088,132.192706 1.80729398,102.954224 1.80729398,67.01675 Z" id="Fill-6" fill="url(#linearGradient-11)" mask="url(#mask-21)"></path>
                        </g>
                    </g>
                    <g id="salary" transform="translate(621.000000, 32.000000)" fill="#5533E8">
                        <path d="M49.659538,14.4696186 L54.2330598,3.63921574 C54.4818527,3.05014536 54.2597298,2.36656283 53.7132491,2.03941519 L51.4690332,0.696165924 C49.709576,-0.357152269 47.4623121,-0.188590664 45.8770989,1.1150121 L45.530643,1.3998275 C44.6693295,2.10847685 43.4190151,2.10847685 42.5566855,1.39931593 L42.5428425,1.38793354 C40.7473174,-0.0885791504 38.1428026,-0.0864049871 36.3498175,1.39356079 C35.4878689,2.10502377 34.2360305,2.10579112 33.373193,1.39611863 L33.0212761,1.10657123 C31.4435559,-0.191148503 29.203912,-0.364186327 27.4481379,0.676086886 L25.143851,2.04120568 C24.5927982,2.36771386 24.3686434,3.05564472 24.6204842,3.64740082 L29.222581,14.4604104 C25.8936586,15.6710357 23.053178,17.9865196 21.1894539,21.0280463 C20.8210271,21.6290106 21.00632,22.4170808 21.6032197,22.7879675 C22.2001194,23.1587263 22.982566,22.972132 23.3509929,22.3710397 C24.9505571,19.760509 27.4073709,17.7854735 30.2843005,16.7920087 L48.5679736,16.7920087 C53.894986,18.6293046 57.4600012,23.6419022 57.4600012,29.3278509 L57.4600012,32.7210804 C57.4600012,33.4272998 58.02858,34 58.7300006,34 C59.4314213,34 60,33.4272998 60,32.7210804 L60,29.3278509 C60,22.6405081 55.865644,16.7358641 49.659538,14.4696186 Z M46.9986353,14.2341695 L31.8894527,14.2341695 L27.3951789,3.6747697 L28.7359172,2.88068852 C29.5795778,2.38063095 30.6560293,2.46388861 31.4143459,3.08761771 L31.7662628,3.37703722 C33.5617879,4.85406148 36.1665566,4.85188731 37.9599227,3.37179365 C38.8216173,2.66045856 40.0733287,2.65956331 40.9370553,3.36974738 L40.9508983,3.38112976 C42.7432484,4.85508461 45.3449691,4.85508461 47.1371923,3.38087398 L47.4835211,3.09605858 C48.2453937,2.46964375 49.3252742,2.38868814 50.1709668,2.89475663 L51.4610322,3.66696829 L46.9986353,14.2341695 Z" id="Shape" fill-rule="nonzero"></path>
                        <path d="M60.5605,35.4393023 C60.2815,35.1604278 59.8945,35 59.5,35 C59.1055,35 58.7185,35.1602779 58.4395,35.4393023 C58.1605,35.7196761 58,36.1048528 58,36.4993253 C58,36.8936479 58.1605,37.2804738 58.4395,37.5591984 C58.7185,37.8395722 59.1055,38 59.5,38 C59.8945,38 60.2815,37.8395722 60.5605,37.5591984 C60.8395,37.2804738 61,36.8936479 61,36.4993253 C61,36.1048528 60.8395,35.7180269 60.5605,35.4393023 Z" id="Path"></path>
                        <path d="M19.5605,55.4395 C19.2815,55.1605 18.8945,55 18.5,55 C18.1055,55 17.7185,55.1605 17.4395,55.4395 C17.1605,55.7185 17,56.1055 17,56.5 C17,56.8945 17.1605,57.2815 17.4395,57.5605 C17.7185,57.83935 18.1055,58 18.5,58 C18.8945,58 19.2815,57.8395 19.5605,57.5605 C19.8395,57.2815 20,56.8945 20,56.5 C20,56.1055 19.8395,55.7185 19.5605,55.4395 Z" id="Path"></path>
                        <path d="M65,52.95625 C65,51.5377781 64.3955762,50.259475 63.4332715,49.36875 C64.3954492,48.478025 65,47.1997219 65,45.78125 C65,43.0966469 62.8358301,40.9125 60.1757812,40.9125 L46.4648437,40.9125 C43.8047949,40.9125 41.640625,43.0966469 41.640625,45.78125 C41.640625,47.1997219 42.2450488,48.478025 43.2073535,49.36875 C42.2451758,50.259475 41.640625,51.5377781 41.640625,52.95625 C41.640625,54.3747219 42.2450488,55.653025 43.2073535,56.54375 C42.2451758,57.434475 41.640625,58.7127781 41.640625,60.13125 C41.640625,60.9652156 41.8497168,61.7506219 42.217373,62.4375 L37.0478418,62.4375 L37.0478418,57.4275563 C37.0478418,50.6517938 31.8865625,45.0707969 25.3235937,44.4761687 C25.1456055,44.4227406 24.9584766,44.410825 24.775791,44.4378594 C24.7544629,44.4368344 24.7330078,44.4363219 24.7116797,44.435425 C26.3596582,42.8105438 27.3854395,40.5454219 27.3854395,38.0421156 L27.3854395,25.28125 C27.3854395,24.5737438 26.8170703,24 26.1159082,24 L16.7117285,24 C12.8246777,24 9.66240234,27.1914656 9.66240234,31.1142688 L9.66240234,38.0419875 C9.66240234,40.5452938 10.6881836,42.8104156 12.3361621,44.4352969 C12.314834,44.4361938 12.2933789,44.4367063 12.2720508,44.4377313 C12.0893652,44.410825 11.9022363,44.4226125 11.724248,44.4760406 C5.1612793,45.0707969 0,50.6519219 0,57.4275563 L0,63.71875 C0,64.4262562 0.568369141,65 1.26953125,65 L20.8203125,65 L35.7783105,65 L46.4648437,65 L59.4140625,65 L60.1757812,65 C62.8358301,65 65,62.8158531 65,60.13125 C65,58.7127781 64.3955762,57.434475 63.4332715,56.54375 C64.3955762,55.653025 65,54.3747219 65,52.95625 Z M12.2014648,32.9089156 L12.2014648,31.1142687 C12.2014648,28.6044281 14.2248437,26.5625 16.7117285,26.5625 L24.846377,26.5625 L24.846377,29.9912531 C24.846377,31.7237594 23.4497656,33.1332625 21.7329785,33.1332625 L12.2014648,33.1332625 L12.2014648,32.9089156 Z M12.2014648,38.0421156 L12.2014648,35.6957625 L21.7329785,35.6957625 C22.882793,35.6957625 23.9528809,35.3466219 24.846377,34.749175 L24.846377,38.0419875 C24.846377,41.5603 22.0101172,44.4227406 18.5239844,44.4227406 C15.0378516,44.4227406 12.2014648,41.5604281 12.2014648,38.0421156 Z M21.8954785,46.9852406 L18.5238574,50.3879844 L15.1522363,46.9852406 L21.8954785,46.9852406 Z M34.5087793,62.4376281 L20.8203125,62.4376281 L20.8203125,62.4375 L2.5390625,62.4376281 L2.5390625,58.7500625 L12.8988184,58.7500625 C13.5999805,58.7500625 14.1683496,58.1763187 14.1683496,57.4688125 C14.1683496,56.7613062 13.5999805,56.1875625 12.8988184,56.1875625 L2.61459961,56.1875625 C3.17573242,51.4255406 6.92313477,47.6382937 11.6393164,47.0637812 L17.6262988,53.1060281 C17.8742383,53.3561281 18.1991113,53.4813062 18.5239844,53.4813062 C18.8488574,53.4813062 19.1738574,53.3561281 19.4216699,53.1060281 L25.4086523,47.0637812 C30.5277832,47.6873656 34.5087793,52.0957625 34.5087793,57.4276844 L34.5087793,62.4376281 Z M60.1757812,62.4375 L59.4140625,62.4375 L46.4648438,62.4375 C45.204834,62.4375 44.1796875,61.4028906 44.1796875,60.13125 C44.1796875,58.8596094 45.204834,57.825 46.4648438,57.825 L60.1757812,57.825 C61.435791,57.825 62.4609375,58.8596094 62.4609375,60.13125 C62.4609375,61.4028906 61.435791,62.4375 60.1757812,62.4375 Z M60.1757812,55.2625 L46.4648438,55.2625 C45.204834,55.2625 44.1796875,54.2278906 44.1796875,52.95625 C44.1796875,51.6846094 45.204834,50.65 46.4648438,50.65 L60.1757812,50.65 C61.435791,50.65 62.4609375,51.6846094 62.4609375,52.95625 C62.4609375,54.2278906 61.435791,55.2625 60.1757812,55.2625 Z M60.1757812,48.0875 L46.4648438,48.0875 C45.204834,48.0875 44.1796875,47.0528906 44.1796875,45.78125 C44.1796875,44.5096094 45.204834,43.475 46.4648438,43.475 L60.1757812,43.475 C61.435791,43.475 62.4609375,44.5096094 62.4609375,45.78125 C62.4609375,47.0528906 61.435791,48.0875 60.1757812,48.0875 Z" id="Shape" fill-rule="nonzero"></path>
                    </g>
                    <g id="Group-9-Copy-3" filter="url(#filter-22)" transform="translate(607.000000, 484.000000)">
                        <path d="M1,66.5 C1,30.8764192 30.3253983,2 66.4991737,2 C102.672949,2 132,30.8764192 132,66.5 C132,102.121953 102.672949,131 66.4991737,131 C30.3253983,131 1,102.121953 1,66.5" id="Fill-1" fill="#B5B5B5"></path>
                        <g id="Group-5" transform="translate(0.000000, 1.000000)">
                            <mask id="mask-24" fill="white">
                                <use xlink:href="#path-23"></use>
                            </mask>
                            <g id="Clip-4"></g>
                            <path d="M0.89265,65.2118 C0.89265,101.055038 30.1719,130.110838 66.2904,130.110838 C102.40725,130.110838 131.6865,101.055038 131.6865,65.2118 C131.6865,29.366925 102.40725,0.311125 66.2904,0.311125 C30.1719,0.311125 0.89265,29.366925 0.89265,65.2118" id="Fill-3" fill="#FFFFFF" mask="url(#mask-24)"></path>
                        </g>
                        <g id="Group-8">
                            <mask id="mask-26" fill="white">
                                <use xlink:href="#path-25"></use>
                            </mask>
                            <g id="Clip-7"></g>
                            <path d="M65.968,0.064 C29.593321,0.064 0,29.657321 0,66.032 C0,102.406679 29.593321,132 65.968,132 C102.342679,132 131.936,102.406679 131.936,66.032 C131.936,29.657321 102.342679,0.064 65.968,0.064 Z M1.77990123,66.032 C1.77990123,30.6375802 30.5735802,1.84390123 65.968,1.84390123 C101.36242,1.84390123 130.156099,30.6375802 130.156099,66.032 C130.156099,101.424778 101.36242,130.220099 65.968,130.220099 C30.5735802,130.220099 1.77990123,101.424778 1.77990123,66.032 Z" id="Fill-6" fill="url(#linearGradient-11)" mask="url(#mask-26)"></path>
                        </g>
                    </g>
                    <g id="donation" transform="translate(639.000000, 516.000000)" fill="#5533E8">
                        <path d="M53.8247096,6.40448412 C55.5678491,7.02222963 56.9753116,8.4323955 57.5935265,10.1742115 C57.7731253,10.6830028 58.251378,11 58.7605559,11 C58.8980499,11 59.0380122,10.9764972 59.1743447,10.928186 C59.8185484,10.7004123 60.1568388,9.9922827 59.9288921,9.34842301 C59.0529666,6.87236323 57.1289216,4.94861842 54.6534486,4.07074664 C54.0079382,3.84413357 53.3005772,4.17970082 53.0713237,4.82341543 C52.8435222,5.46858082 53.1791992,6.17554979 53.8247096,6.40448412 Z" id="Path"></path>
                        <path d="M44.4678385,37.8636561 C44.6345052,37.9541591 44.8166667,38 45,38 C45.1833333,38 45.3666667,37.9541591 45.5321615,37.8636561 C58.1777344,30.9253104 65,19.5107985 65,12.2941331 C65,5.51452777 59.5178385,9.30625985e-16 52.7777344,9.30625985e-16 C48.044401,9.30625985e-16 43.6932292,2.78856666 41.694401,7.1059924 C41.434375,7.6659061 41.6755208,8.33099189 42.2311198,8.59136813 C42.7877604,8.85292313 43.4489583,8.60931156 43.7078125,8.05044566 C45.3445312,4.51755396 48.9044271,2.23533264 52.7778646,2.23533264 C58.2923177,2.23533264 62.7778646,6.74725472 62.7778646,12.2941331 C62.7778646,18.8557977 56.1411458,29.282373 45.0001302,35.6037004 C33.8589844,29.282373 27.2222656,18.8559286 27.2222656,12.2941331 C27.2222656,6.74725472 31.7089844,2.23533264 37.2222656,2.23533264 C38.6144531,2.23533264 39.9611979,2.51692666 41.2266927,3.07356601 C41.7889323,3.3205829 42.4433594,3.06348101 42.689974,2.49793544 C42.9355469,1.93238986 42.6789063,1.27411472 42.1166667,1.02605003 C40.5700521,0.345378342 38.9233073,0 37.2222656,0 C30.4833333,0 25,5.5143968 25,12.2941331 C25,19.5107985 31.8234375,30.9253104 44.4678385,37.8636561 Z" id="Path"></path>
                        <path d="M16.0999785,42.2222656 L24.9001934,42.2222656 C26.1828356,42.2222656 28.365261,43.875651 30.2902557,45.3333333 C32.7036856,47.1622396 34.9829215,48.8889323 37.0003438,48.8889323 L43.6004727,48.8889323 C45.2703568,48.8889323 46.1007871,49.6544271 46.1228305,49.6744792 C46.3373347,49.8911458 46.6190004,50 46.9005371,50 C47.1822028,50 47.4627083,49.8911458 47.6782437,49.6744792 C48.1072521,49.239974 48.1072521,48.5367187 47.6782437,48.1033854 C47.5319323,47.9567708 46.1810973,46.6666667 43.6004727,46.6666667 L37.0003438,46.6666667 C35.7166702,46.6666667 33.5352761,45.0132813 31.6102815,43.555599 C29.1956913,41.7266927 26.9164554,40 24.9001934,40 L16.0999785,40 C15.491658,40 15,40.4977865 15,41.1110677 C15,41.7244792 15.491658,42.2222656 16.0999785,42.2222656 Z" id="Path"></path>
                        <path d="M5,60.5 C5,59.6730078 4.32699219,59 3.5,59 C2.67300781,59 2,59.6730078 2,60.5 C2,61.3269922 2.67300781,62 3.5,62 C4.32699219,62 5,61.3269922 5,60.5 Z" id="Path"></path>
                        <path d="M67.3843616,48.225495 C66.771405,47.1979474 65.7836921,46.4625341 64.6012833,46.155819 C63.417666,45.8470209 62.1824878,46.0046746 61.1947749,46.5623857 L48.0066062,52.7857342 C45.9578673,53.7799546 43.8875106,53.7799546 39.3535111,53.7799546 C34.9192765,53.7799546 28.1511071,52.6946049 28.0834334,52.6845807 C27.4589293,52.5856404 26.8689333,52.9933788 26.7646031,53.5966546 C26.6614814,54.2021435 27.0830989,54.774175 27.7063946,54.8753285 C27.9917249,54.9219346 34.7290115,56.0018165 39.3533768,56.0018165 C44.1106724,56.0018165 46.4985851,56.0018165 49.0205023,54.7787315 L62.2693625,48.5232274 C63.3612713,47.9100576 64.7672448,48.2744445 65.3996711,49.3363609 C65.7055452,49.8507206 65.7858405,50.4494399 65.6276668,51.0227733 C65.4694931,51.5961066 65.0903058,52.0747957 64.5277016,52.3903633 L49.0364808,61.7386649 C49.0033153,61.7587133 45.6987203,63.7782682 38.2074902,63.7782682 C31.7120295,63.7782682 21.67713,58.4170027 21.5326521,58.340324 C21.4295304,58.290333 18.9442698,57.1128126 14.1457523,57.1128126 C13.5121176,57.1128126 13,57.6105086 13,58.2236785 C13,58.8368483 13.5121176,59.3345444 14.1457523,59.3345444 C18.3130519,59.3345444 20.4591388,60.3054617 20.4637041,60.3054617 C20.896869,60.5387527 31.1173339,66 38.2074902,66 C46.4789812,66 50.1489333,63.6893521 50.2704505,63.6104602 L65.7066193,54.2954859 C66.7664368,53.7022344 67.5249455,52.7435544 67.8412929,51.5981896 C68.1589831,50.4506116 67.9962441,49.2530427 67.3843616,48.225495 Z" id="Path"></path>
                        <path d="M7.69998711,37 L1.09996133,37 C0.491650358,37 9.15937573e-16,37.4960135 9.15937573e-16,38.1071104 C9.15937573e-16,38.7182073 0.491650358,39.2142208 1.09996133,39.2142208 L7.69998711,39.2142208 C8.30610666,39.2142208 8.79994844,39.7112723 8.79994844,40.3213313 L8.79994844,64.6786687 C8.79994844,65.2887277 8.30610666,65.7857792 7.69998711,65.7857792 L1.09996133,65.7857792 C0.491650358,65.7857792 0,66.2817927 0,66.8928896 C0,67.5039865 0.491650358,68 1.09996133,68 L7.69998711,68 C9.51937703,68 11,66.5097539 11,64.678539 L11,40.321461 C11,38.4902461 9.51937703,37 7.69998711,37 Z" id="Path"></path>
                    </g>
                    <g id="Group-9-Copy-4" filter="url(#filter-27)" transform="translate(239.000000, 550.000000)">
                        <path d="M1,87 C1,40.6064995 39.2797184,3 86.4989214,3 C133.718124,3 172,40.6064995 172,87 C172,133.391381 133.718124,171 86.4989214,171 C39.2797184,171 1,133.391381 1,87" id="Fill-1" fill="#B5B5B5"></path>
                        <g id="Group-5" transform="translate(1.000000, 1.000000)">
                            <mask id="mask-29" fill="white">
                                <use xlink:href="#path-28"></use>
                            </mask>
                            <g id="Clip-4"></g>
                            <path d="M0.16315,85.1238 C0.16315,131.911537 38.3149,169.839337 85.3784,169.839337 C132.43975,169.839337 170.5915,131.911537 170.5915,85.1238 C170.5915,38.333925 132.43975,0.406125 85.3784,0.406125 C38.3149,0.406125 0.16315,38.333925 0.16315,85.1238" id="Fill-3" fill="#FFFFFF" mask="url(#mask-29)"></path>
                        </g>
                        <g id="Group-8">
                            <mask id="mask-31" fill="white">
                                <use xlink:href="#path-30"></use>
                            </mask>
                            <g id="Clip-7"></g>
                            <path d="M85.958303,0.0833939394 C38.560994,0.0833939394 0,38.644388 0,86.041697 C0,133.439006 38.560994,172 85.958303,172 C133.355612,172 171.916606,133.439006 171.916606,86.041697 C171.916606,38.644388 133.355612,0.0833939394 85.958303,0.0833939394 Z M2.31926525,86.041697 C2.31926525,39.9216955 39.8383015,2.40265918 85.958303,2.40265918 C132.078305,2.40265918 169.597341,39.9216955 169.597341,86.041697 C169.597341,132.159559 132.078305,169.680735 85.958303,169.680735 C39.8383015,169.680735 2.31926525,132.159559 2.31926525,86.041697 Z" id="Fill-6" fill="url(#linearGradient-11)" mask="url(#mask-31)"></path>
                        </g>
                    </g>
                    <g id="choosing" transform="translate(287.000000, 598.000000)" fill="#5533E8" fill-rule="nonzero">
                        <path d="M24,34.0003102 C24,29.5816172 20.4183828,26 15.9996896,26 C11.5816171,26 8,29.5816172 8,34.0003102 C8,38.4183828 11.5816171,42 15.9996896,42 C20.4165212,41.9956563 23.9956563,38.4165212 24,34.0003102 Z M10.6669769,34.0003102 C10.6669769,31.0547217 13.0547217,28.6669769 15.9996896,28.6669769 C18.9452782,28.6669769 21.333023,31.0547217 21.333023,34.0003102 C21.333023,36.9452783 18.9452782,39.3330231 15.9996896,39.3330231 C14.5855342,39.3330231 13.2290866,38.7714564 12.2288151,37.7711847 C11.2285436,36.7709134 10.6669769,35.4144658 10.6669769,34.0003102 Z" id="Shape"></path>
                        <path d="M55.8569671,75.3336598 C55.8545072,77.2312405 56.9922214,78.9408004 58.7344614,79.6562716 C60.4760864,80.3711221 62.4741583,79.9497822 63.785297,78.5895805 C65.0970505,79.9497822 67.0945075,80.3711221 68.8367475,79.6562716 C70.5783725,78.9408004 71.7167017,77.2312405 71.7142417,75.3336598 L71.7142417,61.0881538 C72.1373484,61.2457684 72.5844393,61.3289194 73.0352201,61.3332631 C75.2251661,61.3332631 77,59.5424136 77,57.333327 L77,49.3328343 C77,46.3877993 74.6335547,44 71.7142417,44 L55.8569671,44 C54.3330451,44.0049642 52.8866108,44.6769981 51.8928021,45.8423534 C50.8989935,44.6769981 49.4519442,44.0049642 47.9286373,44 L32.0713627,44 C30.5474407,44.0049642 29.1010063,44.6769981 28.1071977,45.8423534 C27.1133891,44.6769981 25.6663398,44.0049642 24.1430329,44 L8.28575826,44 C5.36644533,44 3,46.3877993 3,49.3328343 L3,57.333327 C3,59.5424136 4.77483392,61.3332631 6.96416484,61.3332631 C7.41556067,61.3289194 7.86265161,61.2457684 8.28575826,61.0881538 L8.28575826,75.3336598 C8.28329818,77.2312405 9.42101236,78.9408004 11.1632523,79.6562716 C12.9048774,80.3711221 14.9029495,79.9497822 16.2140879,78.5895805 C17.5258417,79.9497822 19.5239136,80.3711221 21.2655386,79.6562716 C23.0071637,78.9408004 24.1454928,77.2312405 24.1430329,75.3336598 L24.1430329,61.0881538 C25.5076747,61.6007114 27.0426663,61.2910671 28.1071977,60.2876702 C29.1717292,61.2910671 30.7067207,61.6007114 32.0713627,61.0881538 L32.0713627,75.3336598 C32.0689028,77.2312405 33.2066168,78.9408004 34.9488568,79.6562716 C36.6904818,80.3711221 38.6885539,79.9497822 39.9996925,78.5895805 C41.3114461,79.9497822 43.309518,80.3711221 45.0511431,79.6562716 C46.7927681,78.9408004 47.9310972,77.2312405 47.9286373,75.3336598 L47.9286373,61.0881538 C49.2932793,61.6007114 50.8282708,61.2910671 51.8928021,60.2876702 C52.9573336,61.2910671 54.4923252,61.6007114 55.8569671,61.0881538 L55.8569671,75.3336598 Z M69.0710552,75.3336598 C69.0710552,76.4382031 68.1836382,77.3336279 67.0889727,77.3336279 C65.9943073,77.3336279 65.1068902,76.4382031 65.1068902,75.3336598 L65.1068902,69.3331353 C65.1068902,68.5971867 64.515279,68.0002369 63.785297,68.0002369 C63.0559299,68.0002369 62.4643187,68.5971867 62.4643187,69.3331353 L62.4643187,75.3336598 C62.4643187,76.4382031 61.5769016,77.3336279 60.4822362,77.3336279 C59.3875707,77.3336279 58.5001537,76.4382031 58.5001537,75.3336598 L58.5001537,63.9996803 L69.0710552,63.9996803 L69.0710552,75.3336598 Z M21.4998462,75.3336598 C21.4998462,76.4382031 20.6124291,77.3336279 19.5177638,77.3336279 C18.4230982,77.3336279 17.5356813,76.4382031 17.5356813,75.3336598 L17.5356813,69.3331353 C17.5356813,68.5971867 16.9440699,68.0002369 16.2140879,68.0002369 C15.484721,68.0002369 14.8931098,68.5971867 14.8931098,69.3331353 L14.8931098,75.3336598 C14.8931098,76.4382031 14.0056927,77.3336279 12.9110273,77.3336279 C11.8163618,77.3336279 10.9289448,76.4382031 10.9289448,75.3336598 L10.9289448,63.9996803 L21.4998462,63.9996803 L21.4998462,75.3336598 Z M25.4640112,58.6668458 C24.7346441,58.6668458 24.1430329,58.0698961 24.1430329,57.333327 L24.1430329,50.6663532 C24.1430329,49.9304047 23.5514215,49.3328343 22.8214394,49.3328343 C22.0914576,49.3328343 21.4998462,49.9304047 21.4998462,50.6663532 L21.4998462,61.3332631 L10.9289448,61.3332631 L10.9289448,50.6663532 C10.9289448,49.9304047 10.3373335,49.3328343 9.60735151,49.3328343 C8.87736951,49.3328343 8.28575826,49.9304047 8.28575826,50.6663532 L8.28575826,57.333327 C8.28575826,58.0698961 7.69414684,58.6668458 6.96416484,58.6668458 C6.23479793,58.6668458 5.64318652,58.0698961 5.64318652,57.333327 L5.64318652,49.3328343 C5.64318652,47.8603168 6.82640918,46.6664172 8.28575826,46.6664172 L24.1430329,46.6664172 C25.6023818,46.6664172 26.7856044,47.8603168 26.7856044,49.3328343 L26.7856044,57.333327 C26.7856044,58.0698961 26.1939932,58.6668458 25.4640112,58.6668458 Z M45.2854506,75.3336598 C45.2854506,76.4382031 44.3980337,77.3336279 43.3033683,77.3336279 C42.2087028,77.3336279 41.3212858,76.4382031 41.3212858,75.3336598 L41.3212858,69.3331353 C41.3212858,68.5971867 40.7296744,68.0002369 39.9996925,68.0002369 C39.2703255,68.0002369 38.6787142,68.5971867 38.6787142,69.3331353 L38.6787142,75.3336598 C38.6787142,76.4382031 37.7912972,77.3336279 36.6966317,77.3336279 C35.6019663,77.3336279 34.7145492,76.4382031 34.7145492,75.3336598 L34.7145492,63.9996803 L45.2854506,63.9996803 L45.2854506,75.3336598 Z M49.2496156,58.6668458 C48.5202487,58.6668458 47.9286373,58.0698961 47.9286373,57.333327 L47.9286373,50.6663532 C47.9286373,49.9304047 47.3370259,49.3328343 46.607044,49.3328343 C45.877062,49.3328343 45.2854506,49.9304047 45.2854506,50.6663532 L45.2854506,61.3332631 L34.7145492,61.3332631 L34.7145492,50.6663532 C34.7145492,49.9304047 34.122938,49.3328343 33.392956,49.3328343 C32.6629739,49.3328343 32.0713627,49.9304047 32.0713627,50.6663532 L32.0713627,57.333327 C32.0713627,58.0698961 31.4797513,58.6668458 30.7497694,58.6668458 C30.0204024,58.6668458 29.428791,58.0698961 29.428791,57.333327 L29.428791,49.3328343 C29.428791,47.8603168 30.6120138,46.6664172 32.0713627,46.6664172 L47.9286373,46.6664172 C49.3879862,46.6664172 50.5712089,47.8603168 50.5712089,49.3328343 L50.5712089,57.333327 C50.5712089,58.0698961 49.9795976,58.6668458 49.2496156,58.6668458 Z M54.5353739,58.6668458 C53.8060068,58.6668458 53.2143956,58.0698961 53.2143956,57.333327 L53.2143956,49.3328343 C53.2143956,47.8603168 54.3976182,46.6664172 55.8569671,46.6664172 L71.7142417,46.6664172 C73.1735908,46.6664172 74.3568133,47.8603168 74.3568133,49.3328343 L74.3568133,57.333327 C74.3568133,58.0698961 73.7652021,58.6668458 73.0352201,58.6668458 C72.3058532,58.6668458 71.7142417,58.0698961 71.7142417,57.333327 L71.7142417,50.6663532 C71.7142417,49.9304047 71.1226305,49.3328343 70.3926485,49.3328343 C69.6626665,49.3328343 69.0710552,49.9304047 69.0710552,50.6663532 L69.0710552,61.3332631 L58.5001537,61.3332631 L58.5001537,50.6663532 C58.5001537,49.9304047 57.9079275,49.3328343 57.1785604,49.3328343 C56.4485784,49.3328343 55.8569671,49.9304047 55.8569671,50.6663532 L55.8569671,57.333327 C55.8569671,58.0698961 55.2653559,58.6668458 54.5353739,58.6668458 Z" id="Shape"></path>
                        <path d="M71.9999907,24.0309695 C72.0030956,22.464144 71.1374857,21.0192029 69.7409603,20.2598625 C61.0320809,15.5039285 31.5144137,0.00204570646 17.2951892,0.00204570646 C11.7960209,-0.0515834514 6.33907759,0.949697925 1.23111027,2.94982283 C0.734968016,3.14971345 0.343146189,3.53730622 0.143198936,4.02545369 C-0.0567481584,4.51299177 -0.0468128951,5.05964396 0.169899996,5.53986882 C2.00481897,9.63457933 5.15367652,16.5094757 6.87061417,20.2598625 C7.09974614,20.7583702 7.53006719,21.1404781 8.05849905,21.314773 C8.58693091,21.4884584 9.16503892,21.4384857 9.65372972,21.1764341 L12.1959153,19.8149839 C14.4431477,18.5723713 17.2244004,18.743619 19.2965238,20.2507211 C20.7166454,21.3568231 21.9138446,22.7146167 22.8260259,24.2527994 C24.2331077,26.5454473 25.7811459,28.9154917 27.4130129,31.3013811 C27.7396347,31.775512 28.0575631,32.2179527 28.3469276,32.6396733 L28.815127,33.3021156 C29.5584088,34.3387434 30.7400842,34.9883879 32.0279427,35.0688317 C32.5284316,39.1982793 36.2212448,42.2301568 40.451183,41.98395 C44.6817424,41.7377433 47.9833546,38.2993809 47.9833546,34.1406811 C47.9833546,34.0919272 47.9765241,34.0486584 47.9752822,34.0017327 C49.584174,31.192904 50.9757317,28.1378685 50.6435213,24.7616673 C50.4708961,23.2149526 50.0126321,21.711507 49.2904626,20.3256801 L62.4304694,26.4351417 C58.7587685,27.1499945 56.0818362,30.2665816 55.9849672,33.9389621 C55.8880985,37.6113428 58.3973734,40.8595654 62.0262283,41.7596825 C65.6557042,42.6597997 69.4354509,40.9716991 71.1281713,37.6948337 C72.8208919,34.4179684 71.9732898,30.4274692 69.0883376,28.086677 C69.3888794,27.9861221 69.677002,27.8544869 69.9489797,27.6935993 C71.228766,26.9001311 72.0030956,25.5167419 71.9999907,24.0309695 Z M34.572612,21.3677928 C34.6322236,21.1167106 34.8110584,20.909507 35.0526094,20.8101711 C36.4721101,20.6084522 37.9189329,20.8960997 39.1465588,21.6231408 C40.9299386,22.3611516 42.1811608,23.9718556 42.4338891,25.8555807 C42.4394777,26.132868 42.4208491,26.4101554 42.3780032,26.6843955 C40.0699174,26.00428 37.5743034,26.3540885 35.5530982,27.641189 C34.5806844,25.4338604 33.9386179,23.2247034 34.572612,21.3677928 Z M39.9773953,39.378059 C37.1470871,39.3707459 34.8166469,37.193279 34.6701018,34.4191873 C34.9271766,34.2582997 35.166244,34.0718163 35.3835778,33.8615656 C36.3764832,32.8883177 36.8161186,31.4976153 36.5578018,30.1440877 C38.2852956,28.7479005 40.7101209,28.5400874 42.6580535,29.6199843 C44.1905678,30.487802 45.1785056,32.0503616 45.2908982,33.7829499 C45.2908982,33.8237813 45.3026964,33.8914272 45.3095268,33.9322586 C45.3163573,34.0011233 45.3182202,34.071207 45.3144944,34.1406811 C45.3144944,35.5295552 44.7525311,36.8617531 43.7515533,37.8441422 C42.7505756,38.8265316 41.3931703,39.378059 39.9773953,39.378059 Z M63.9940314,39.378059 C61.0469838,39.378059 58.657553,37.0330008 58.657553,34.1406811 C58.657553,31.2477519 61.0469838,28.9026937 63.9940314,28.9026937 C66.9416999,28.9026937 69.3311307,31.2477519 69.3311307,34.1406811 C69.3311307,37.0330008 66.9416999,39.378059 63.9940314,39.378059 Z M68.5214067,25.4783482 C68.0171921,25.8013422 67.3769885,25.8415641 66.8348958,25.5843877 L45.887014,15.8415485 C45.306422,15.5788875 44.6177841,15.7635424 44.2539052,16.279114 C43.8831956,16.8019985 43.9390815,17.5089287 44.3874102,17.9696524 C46.317956,19.8808017 47.5772508,22.3453065 47.9833546,25.0066551 C48.0907796,26.8178591 47.7231748,28.626016 46.9159347,30.2580496 C46.3968172,29.3548854 45.699486,28.562636 44.8636819,27.9282271 C45.0437586,27.215812 45.1219988,26.4826767 45.0959186,25.7495413 C44.8177312,22.8919587 42.9809495,20.4085616 40.2990493,19.2634565 C38.8317351,18.5717618 36.0734577,17.5430564 34.0081648,18.3980764 C33.06121,18.7905445 32.3396616,19.5742621 32.037257,20.5389781 C30.9698371,23.6817704 32.2552119,27.0415172 33.792073,30.1702928 C33.792073,30.1843095 33.8187739,30.2300162 33.8361606,30.2684099 C33.8535473,30.306194 33.8547893,30.3348369 33.8653455,30.3689646 C34.0715022,30.9399935 33.9274408,31.5768403 33.494636,32.0083113 C33.1543532,32.3380091 32.684912,32.5056002 32.2080194,32.4684254 C31.7317477,32.4306413 31.295217,32.1917476 31.0126829,31.8132961 L30.5388952,31.1429314 C30.2495305,30.7346182 29.9384326,30.2958339 29.6211251,29.8332821 C28.0203059,27.4870051 26.4964848,25.1523071 25.1061689,22.8931775 C24.0232252,21.07527 22.6024825,19.4724885 20.9178345,18.1689335 C18.0068023,16.0298602 14.0854782,15.7732932 10.9111616,17.5138041 L9.00048616,18.5382436 C7.33757155,14.8908492 4.64635702,9.01296827 2.89588778,5.11814853 C7.49777759,3.42090646 12.3797177,2.57441851 17.2951892,2.62134401 C31.2219445,2.62134401 62.3453986,19.2177499 68.4506179,22.547635 C68.9821545,22.8444237 69.3162278,23.3935134 69.3305098,23.9931852 C69.3447916,24.5934666 69.0380404,25.1565731 68.5214067,25.4783482 Z" id="Shape"></path>
                    </g>
                </g>
            </g>
        </g>
    </g>
</svg>