<?xml version="1.0" encoding="UTF-8"?>
<svg width="140px" height="140px" viewBox="0 0 140 140" version="1.1" xmlns="http://www.w3.org/2000/svg" xmlns:xlink="http://www.w3.org/1999/xlink">
    <!-- Generator: Sketch 52.6 (67491) - http://www.bohemiancoding.com/sketch -->
    <title>sos</title>
    <desc>Created with Sketch.</desc>
    <g id="sos" stroke="none" stroke-width="1" fill="none" fill-rule="evenodd">
        <g id="Group" transform="translate(29.000000, 18.000000)" fill="#FFFFFF">
            <path d="M34,42.5 C34,40.5694 32.4306,39 30.5,39 C28.5694,39 27,40.5694 27,42.5 C27,44.4306 28.5694,46 30.5,46 C32.4306,46 34,44.4306 34,42.5 M30.5,43.2 C30.115,43.2 29.8,42.885 29.8,42.5 C29.8,42.115 30.115,41.8 30.5,41.8 C30.885,41.8 31.2,42.115 31.2,42.5 C31.2,42.885 30.885,43.2 30.5,43.2" id="Fill-1"></path>
            <path d="M53.5,46 C55.4306,46 57,44.4306 57,42.5 C57,40.5694 55.4306,39 53.5,39 C51.5694,39 50,40.5694 50,42.5 C50,44.4306 51.5694,46 53.5,46 M53.5,41.8 C53.885,41.8 54.2,42.115 54.2,42.5 C54.2,42.885 53.885,43.2 53.5,43.2 C53.115,43.2 52.8,42.885 52.8,42.5 C52.8,42.115 53.115,41.8 53.5,41.8" id="Fill-3"></path>
            <path d="M55,54 L51.3333333,54 C51.3333333,57.309 48.0443333,60 44,60 C39.9556667,60 36.6666667,57.309 36.6666667,54 L33,54 C33,58.9635 37.9335,63 44,63 C50.0665,63 55,58.9635 55,54" id="Fill-5"></path>
            <polygon id="Fill-7" points="24 100 33 100 33 97 24 97"></polygon>
            <path d="M65.3952681,75.1209032 C62.0312303,74.0994415 58.5688486,73.3072964 55.1030757,72.7651774 L54.8690852,72.7289355 L54.8690852,70.941 C59.1669657,68.402123 62.6164186,64.5380423 64.6642597,59.8973488 C65.7511287,57.4341915 67.4322999,55.2650685 69.6586011,53.796623 C71.9798551,52.2658327 73.5205047,49.6193085 73.5205047,46.5967742 L73.5205047,39.5884899 C75.7637618,35.8089738 76.9116719,31.7841774 76.9116719,27.6129032 C76.9116719,20.4766935 72.7490142,13.4802742 65.1884069,7.90937097 C58.567153,3.03051613 50.0638013,0 43,0 C35.9361987,0 27.432847,3.03051613 20.8115931,7.90937097 C13.2509858,13.4802742 9.08832808,20.4766935 9.08832808,27.6129032 C9.08832808,31.7841774 10.2362382,35.8089738 12.4794953,39.5884899 L12.4794953,46.5967742 C12.4794953,50.9492581 15.6739748,54.5218931 19.7942429,55.1069415 C21.215142,61.8651996 25.425276,67.5705 31.1309148,70.941 L31.1309148,72.7289355 L30.8952287,72.7651774 C27.4311514,73.3072964 23.9687697,74.0994415 20.6064274,75.1209032 C14.6210174,76.9347258 9.68856467,81.0145323 6.71451104,86.607871 C6.00236593,87.9507641 5.41230284,89.3726129 4.96466877,90.8326452 L0,107 L86,107 L84.6164038,102.495645 C76.9116719,78.0927419 66.4329653,75.435 65.3952681,75.1209032 Z M57.7837934,75.7594516 L55.1437697,87.8573548 L45.626459,83.0112903 L53.5278785,74.9690323 L54.3502366,75.0984677 C55.4981467,75.2781673 56.64097,75.5230161 57.7837934,75.7594516 Z M42.7626183,85.4155544 L48.6259464,88.3994738 L46.0859621,93.5699899 L47.544164,102.469758 L37.9810726,102.469758 L39.4392744,93.5715 L36.8992902,88.4011996 L42.7626183,85.4155544 Z M19.0244479,37.0634194 C17.7646293,37.3257419 16.6235016,37.8952581 15.6332808,38.6582802 L15.6332808,33.4375 C15.6332808,31.5339355 17.1542192,29.9858871 19.0244479,29.9858871 L19.0244479,37.0634194 Z M22.4156151,26.5342742 L22.4156151,21.3568548 L35.9802839,21.3568548 L35.9802839,21.3033548 C37.5266562,23.4174677 39.9801656,24.8084677 42.7626183,24.8084677 C45.545071,24.8084677 47.9985804,23.4174677 49.5449527,21.3033548 L49.5449527,21.3568548 L63.1096215,21.3568548 L63.1096215,26.5342742 L59.7184543,26.5342742 L59.7184543,29.9858871 L62.7332019,29.9858871 C62.1227918,31.4925161 60.5221609,33.4375 56.3272871,33.4375 C52.8801656,33.4375 50.8437697,32.9715323 48.871806,32.5245484 C47.1202681,32.1241613 45.3110804,31.7116935 42.7626183,31.7116935 C40.2141562,31.7116935 38.4049685,32.1241613 36.6534306,32.5245484 C34.6814669,32.9715323 32.645071,33.4375 29.1979495,33.4375 C25.0047713,33.4375 23.4092271,31.5011452 22.798817,29.9858871 L56.3272871,29.9858871 L56.3272871,26.5342742 L22.4156151,26.5342742 Z M37.6758675,16.1794355 L37.6758675,11.0020161 L47.8493691,11.0020161 L47.8493691,16.1794355 C47.8493691,19.0339194 45.5671136,21.3568548 42.7626183,21.3568548 C39.958123,21.3568548 37.6758675,19.0339194 37.6758675,16.1794355 Z M69.8919558,38.6597903 C68.901735,37.8969839 67.7606073,37.3257419 66.5007886,37.0651452 L66.5007886,29.9858871 C68.3710174,29.9858871 69.8919558,31.5339355 69.8919558,33.4375 L69.8919558,38.6597903 Z M66.4295741,50.4004516 C66.4567035,49.924129 66.5007886,49.4531996 66.5007886,48.9697581 L66.5007886,40.6584899 C68.4693612,41.3729738 69.8919558,43.2711452 69.8919558,45.5181452 C69.8919558,47.7910323 68.4354495,49.7066774 66.4295741,50.4004516 Z M42.7626183,2.37298387 C58.9130521,2.37298387 73.283123,15.8843226 73.283123,26.5342742 C73.283123,27.9943065 73.1101735,29.433629 72.7795347,30.8522419 C71.772358,28.3239355 69.3425868,26.5342742 66.5007886,26.5342742 L66.5007886,17.9052419 L51.0692823,17.9052419 C51.1811909,17.3478065 51.2405363,16.7696613 51.2405363,16.1794355 L51.2405363,7.55040323 L34.2847003,7.55040323 L34.2847003,16.1794355 C34.2847003,16.7696613 34.3440457,17.3478065 34.4559543,17.9052419 L19.0244479,17.9052419 L19.0244479,26.5342742 C16.1826498,26.5342742 13.7528785,28.3239355 12.7457019,30.8522419 C12.4150631,29.433629 12.2421136,27.9943065 12.2421136,26.5342742 C12.2421136,13.7495 29.3081625,2.37298387 42.7626183,2.37298387 Z M15.6332808,45.5181452 C15.6332808,43.2711452 17.0558754,41.3729738 19.0244479,40.6584899 L19.0244479,48.9697581 C19.0244479,49.4531996 19.0685331,49.924129 19.0956625,50.4004516 C17.0897871,49.7066774 15.6332808,47.7910323 15.6332808,45.5181452 Z M22.4156151,48.9697581 L22.4156151,34.9236351 C23.9704653,36.0848871 26.1611593,36.8891129 29.1979495,36.8891129 C33.019795,36.8891129 35.3444401,36.3592903 37.3944006,35.8915968 C39.1086356,35.4998387 40.5905757,35.1633065 42.7626183,35.1633065 C44.9346609,35.1633065 46.4166009,35.4998387 48.130836,35.8915968 C50.1807965,36.3592903 52.5054416,36.8891129 56.3272871,36.8891129 C59.3640773,36.8891129 61.5547713,36.0848871 63.1096215,34.9236351 L63.1096215,48.9697581 C63.1096215,60.3894194 53.982295,69.6794355 42.7626183,69.6794355 C31.5429416,69.6794355 22.4156151,60.3894194 22.4156151,48.9697581 Z M42.7626183,73.1310484 C45.7519322,73.1310484 48.6039038,72.5427641 51.2405363,71.5107319 L51.2405363,72.4165645 L42.7626183,81.0458125 L34.2847003,72.4165645 L34.2847003,71.5107319 C36.9213328,72.5427641 39.7733044,73.1310484 42.7626183,73.1310484 Z M31.1733044,75.0984677 L31.997358,74.9690323 L39.9004732,83.0130161 L30.3831625,87.8592964 L27.7431388,75.7613931 C28.8842666,75.5230161 30.0270899,75.2781673 31.1733044,75.0984677 Z M7.96246057,90.7843226 C8.34566246,89.5348387 8.85094637,88.3200867 9.45966088,87.1722097 C12.0013407,82.39 16.2182571,78.9021452 21.337224,77.3506452 C22.3562697,77.0417258 23.397358,76.7932097 24.4333596,76.5276512 L28.0127366,92.9210867 L33.8641956,89.9438548 L35.910765,94.1116774 L34.5441246,102.469758 L19.2499606,102.469758 L20.7064669,90.6033286 L17.342429,90.1751129 L15.831664,102.469758 L4.37460568,102.469758 L7.96246057,90.7843226 Z M81.1506309,102.469758 L69.6935726,102.469758 L68.1828076,90.1751129 L64.8187697,90.6033286 L66.275276,102.469758 L50.981112,102.469758 L49.612776,94.1099516 L51.6593454,89.942129 L57.5108044,92.9191452 L61.0901814,76.5259254 C62.126183,76.7914839 63.1994874,76.9448649 64.1880126,77.3489194 C68.6457019,79.171371 72.6727129,84.9959677 72.6727129,84.9959677 C79.4550473,95.5665323 80.168888,99.2735645 80.168888,99.2735645 L81.1506309,102.469758 Z" id="Fill-9"></path>
        </g>
    </g>
</svg>